<svg xmlns="http://www.w3.org/2000/svg" viewBox="0 0 409.49 158.8"><defs><style>.cls-1{fill:#f7f7f7;}.cls-2{fill:#70492f;}</style></defs><g id="Layer_2" data-name="Layer 2"><g id="Layer_1-2" data-name="Layer 1"><path class="cls-1" d="M167.45,75.63a47.18,47.18,0,0,1,6.15,23.1c0,29.13-27.77,53.55-65.13,60.07l-.19-.59V119.53C137.21,113.6,159.88,96.82,167.45,75.63Z"/><path class="cls-1" d="M170.17,60.07a45.94,45.94,0,0,1-2.72,15.56c-9.76-17.58-30.34-31.15-55.75-36.37V1.37C145.65,9.49,170.17,32.7,170.17,60.07Z"/><path class="cls-2" d="M111.7,39.26v1.15l-.15-1.18Z"/><path class="cls-2" d="M108.28,118.4v1.13l-.16,0Z"/><path class="cls-2" d="M65.44,39.25l-.12,1.06v-1Z"/><path class="cls-1" d="M65.32.5V39.28C36.39,45.21,13.72,62,6.15,83.18A47.25,47.25,0,0,1,0,60.07C0,30.94,27.77,6.51,65.16,0Z"/><path class="cls-2" d="M61.89,118.49l.12,1.07-.12,0Z"/><path class="cls-1" d="M61.89,119.53v37.89c-34-8.11-58.46-31.33-58.46-58.69A45.88,45.88,0,0,1,6.15,83.18C15.91,100.76,36.49,114.32,61.89,119.53Z"/><path class="cls-1" d="M193.11,38.65a90.54,90.54,0,0,1,13.32-1c9,0,15.41,2.08,19.66,6.05s6.84,9.57,6.84,17.42-2.45,14.4-7,18.87-12,7-21.46,7a98.53,98.53,0,0,1-11.37-.58Zm6.26,42.92a39.41,39.41,0,0,0,6.34.36c13.39,0,20.66-7.49,20.66-20.59.08-11.45-6.41-18.72-19.65-18.72a35.8,35.8,0,0,0-7.35.64Z"/><path class="cls-1" d="M264.17,71.27l-5,15.27h-6.48L269.14,38h7.56l16.56,48.53h-6.7l-5.18-15.27Zm15.91-4.89-4.75-14c-1.08-3.17-1.8-6-2.52-8.86h-.14c-.72,2.88-1.52,5.83-2.45,8.79l-4.75,14Z"/><path class="cls-1" d="M315.65,38.65a66,66,0,0,1,12-1c6.7,0,11,1.22,14,4a12.07,12.07,0,0,1,3.82,9.21c0,6.41-4,10.66-9.14,12.39v.21c3.74,1.3,6,4.76,7.12,9.8,1.59,6.77,2.74,11.45,3.75,13.32h-6.48C340,85.17,338.91,81,337.54,75c-1.44-6.7-4-9.22-9.72-9.44h-5.91v21h-6.26Zm6.26,22.11h6.41c6.7,0,10.95-3.67,10.95-9.22,0-6.26-4.54-9-11.16-9.07a25.66,25.66,0,0,0-6.2.58Z"/><path class="cls-1" d="M377.5,71.27l-5.05,15.27H366L382.46,38H390l16.57,48.53h-6.7L394.7,71.27Zm15.91-4.89-4.75-14c-1.08-3.17-1.8-6-2.52-8.86H386c-.72,2.88-1.51,5.83-2.45,8.79l-4.75,14Z"/><path class="cls-1" d="M210.2,121.52a15.5,15.5,0,0,1-6.41,1.15c-6.84,0-12-4.32-12-12.27,0-7.6,5.15-12.74,12.68-12.74a13,13,0,0,1,5.75,1.08l-.75,2.55a11.52,11.52,0,0,0-4.9-1c-5.68,0-9.46,3.63-9.46,10,0,5.94,3.42,9.76,9.32,9.76a12.55,12.55,0,0,0,5.11-1Z"/><path class="cls-1" d="M242.49,109.93c0,8.35-5.08,12.78-11.27,12.78-6.4,0-10.9-5-10.9-12.31,0-7.7,4.78-12.74,11.26-12.74S242.49,102.73,242.49,109.93Zm-18.83.4c0,5.18,2.81,9.82,7.74,9.82s7.78-4.57,7.78-10.07c0-4.83-2.52-9.87-7.74-9.87S223.66,105,223.66,110.33Z"/><path class="cls-1" d="M258.11,114.68l-2.51,7.63h-3.24l8.24-24.26h3.78l8.28,24.26h-3.35l-2.59-7.63Zm8-2.44-2.38-7c-.54-1.58-.9-3-1.26-4.42h-.07c-.36,1.43-.75,2.91-1.22,4.39l-2.38,7Z"/><path class="cls-1" d="M300.81,121.52a15.5,15.5,0,0,1-6.41,1.15c-6.84,0-12-4.32-12-12.27,0-7.6,5.14-12.74,12.67-12.74a13.06,13.06,0,0,1,5.76,1.08l-.76,2.55a11.52,11.52,0,0,0-4.9-1c-5.68,0-9.46,3.63-9.46,10,0,5.94,3.42,9.76,9.32,9.76a12.55,12.55,0,0,0,5.11-1Z"/><path class="cls-1" d="M315.5,98.05V108.2h11.73V98.05h3.17v24.26h-3.17V110.94H315.5v11.37h-3.13V98.05Z"/><path class="cls-1" d="M346.6,98.05v24.26h-3.13V98.05Z"/><path class="cls-1" d="M359.71,122.31V98.05h3.42l7.77,12.28a70,70,0,0,1,4.36,7.88l.07,0c-.29-3.23-.36-6.19-.36-10V98.05h2.95v24.26h-3.17L367.05,110a78.33,78.33,0,0,1-4.54-8.1l-.1,0c.18,3.06.25,6,.25,10v10.36Z"/><path class="cls-1" d="M409.49,121.23a22.35,22.35,0,0,1-7.45,1.34c-3.67,0-6.69-.94-9.07-3.21a12.45,12.45,0,0,1-3.38-9c0-7.24,5-12.53,13.13-12.53a14.87,14.87,0,0,1,6,1.12l-.75,2.55a12.72,12.72,0,0,0-5.37-1c-5.9,0-9.75,3.67-9.75,9.75s3.71,9.79,9.36,9.79a10.22,10.22,0,0,0,4.17-.64v-7.24H401.5v-2.52h8Z"/></g></g></svg>