<svg xmlns="http://www.w3.org/2000/svg" viewBox="0 0 32 31.9"><defs><style>.cls-1{fill:#f7f7f7;}.cls-2{fill:#70492f;}</style></defs><g id="Layer_2" data-name="Layer 2"><g id="Layer_1-2" data-name="Layer 1"><path class="cls-1" d="M30.87,15.19A10.19,10.19,0,0,1,32,19.83c0,5.86-5.12,10.76-12,12.07l0-.12V24C25.29,22.82,29.47,19.45,30.87,15.19Z"/><path class="cls-1" d="M31.37,12.07a10.14,10.14,0,0,1-.5,3.12c-1.8-3.53-5.6-6.25-10.28-7.3V.28C26.85,1.91,31.37,6.57,31.37,12.07Z"/><path class="cls-2" d="M20.59,7.89v.23l0-.24Z"/><path class="cls-2" d="M20,23.78V24h0Z"/><path class="cls-2" d="M12.06,7.88l0,.22V7.89Z"/><path class="cls-1" d="M12,.1V7.89C6.71,9.08,2.53,12.45,1.13,16.71A10.19,10.19,0,0,1,0,12.07C0,6.22,5.12,1.31,12,0Z"/><path class="cls-2" d="M11.41,23.8l0,.22h0Z"/><path class="cls-1" d="M11.41,24v7.61C5.15,30,.63,25.33.63,19.83a10.19,10.19,0,0,1,.5-3.12C2.93,20.24,6.72,23,11.41,24Z"/></g></g></svg>