<svg xmlns="http://www.w3.org/2000/svg" xmlns:xlink="http://www.w3.org/1999/xlink" viewBox="0 0 403.93 162.83"><defs><style>.cls-1{fill:url(#linear-gradient);}.cls-2{fill:url(#linear-gradient-2);}.cls-3{fill:url(#linear-gradient-3);}.cls-4{fill:url(#linear-gradient-4);}.cls-5{fill:url(#linear-gradient-5);}.cls-6{fill:url(#linear-gradient-6);}.cls-7{fill:url(#linear-gradient-7);}.cls-8{fill:url(#linear-gradient-8);}.cls-9{fill:#442f24;}.cls-10{fill:#6d5241;}</style><linearGradient id="linear-gradient" x1="108.28" y1="120.19" x2="173.6" y2="120.19" gradientUnits="userSpaceOnUse"><stop offset="0" stop-color="#a47c52"/><stop offset="0.06" stop-color="#9b7349"/><stop offset="0.13" stop-color="#8a6239"/><stop offset="0.26" stop-color="#825a31"/><stop offset="0.28" stop-color="#7d552c"/><stop offset="0.34" stop-color="#774e26"/><stop offset="0.51" stop-color="#754c24"/><stop offset="0.66" stop-color="#754c24"/><stop offset="0.85" stop-color="#a37b51"/></linearGradient><linearGradient id="linear-gradient-2" x1="111.71" y1="39.48" x2="170.17" y2="39.48" xlink:href="#linear-gradient"/><linearGradient id="linear-gradient-3" x1="111.55" y1="40.84" x2="111.71" y2="40.84" xlink:href="#linear-gradient"/><linearGradient id="linear-gradient-4" x1="108.12" y1="122" x2="108.28" y2="122" xlink:href="#linear-gradient"/><linearGradient id="linear-gradient-5" x1="65.33" y1="40.79" x2="65.44" y2="40.79" xlink:href="#linear-gradient"/><linearGradient id="linear-gradient-6" x1="0" y1="42.65" x2="65.33" y2="42.65" xlink:href="#linear-gradient"/><linearGradient id="linear-gradient-7" x1="61.9" y1="122.04" x2="62.01" y2="122.04" xlink:href="#linear-gradient"/><linearGradient id="linear-gradient-8" x1="3.43" y1="123.35" x2="61.9" y2="123.35" xlink:href="#linear-gradient"/></defs><g id="Layer_2" data-name="Layer 2"><g id="Layer_1-2" data-name="Layer 1"><path class="cls-1" d="M167.45,77.55a49.34,49.34,0,0,1,6.15,23.69c0,29.86-27.76,54.91-65.13,61.59l-.19-.61V122.57C137.22,116.48,159.89,99.28,167.45,77.55Z"/><path class="cls-2" d="M170.17,61.61a48.14,48.14,0,0,1-2.72,15.94c-9.76-18-30.34-31.94-55.74-37.27V1.42C145.66,9.74,170.17,33.54,170.17,61.61Z"/><path class="cls-3" d="M111.71,40.28v1.16l-.16-1.2Z"/><path class="cls-4" d="M108.28,121.4v1.17l-.16,0Z"/><path class="cls-5" d="M65.44,40.25l-.11,1.09V40.27Z"/><path class="cls-6" d="M65.33.52V40.27c-28.94,6.09-51.62,23.29-59.18,45A49.51,49.51,0,0,1,0,61.61C0,31.72,27.79,6.68,65.17,0Z"/><path class="cls-7" d="M61.9,121.49l.11,1.1-.11,0Z"/><path class="cls-8" d="M61.9,122.57v38.84C28,153.1,3.43,129.3,3.43,101.24A48.09,48.09,0,0,1,6.15,85.3C15.92,103.32,36.5,117.23,61.9,122.57Z"/><path class="cls-9" d="M187.55,39.93a89.08,89.08,0,0,1,13.32-1c9,0,15.41,2.09,19.66,6s6.84,9.58,6.84,17.43-2.45,14.4-7,18.86-12,7-21.45,7a101,101,0,0,1-11.38-.58Zm6.26,42.92a40.6,40.6,0,0,0,6.34.36c13.39,0,20.67-7.49,20.67-20.6.07-11.45-6.41-18.72-19.66-18.72a35.66,35.66,0,0,0-7.35.65Z"/><path class="cls-9" d="M258.61,72.55l-5,15.26h-6.48l16.49-48.53h7.56L287.7,87.81H281l-5.18-15.26Zm15.91-4.9-4.75-14c-1.08-3.17-1.8-6-2.52-8.85h-.14c-.72,2.88-1.51,5.83-2.45,8.78l-4.75,14Z"/><path class="cls-9" d="M310.09,39.93a65,65,0,0,1,12-1c6.7,0,11,1.23,14.05,4A12.11,12.11,0,0,1,340,52.1c0,6.41-4,10.66-9.14,12.38v.22c3.74,1.3,6,4.75,7.13,9.79,1.58,6.77,2.73,11.45,3.74,13.32h-6.48c-.79-1.36-1.87-5.54-3.24-11.59-1.44-6.7-4-9.22-9.72-9.43h-5.91v21h-6.26ZM316.35,62h6.41c6.7,0,10.95-3.68,10.95-9.22,0-6.27-4.54-9-11.16-9.07a25.82,25.82,0,0,0-6.2.57Z"/><path class="cls-9" d="M371.94,72.55l-5,15.26h-6.48l16.49-48.53h7.56L401,87.81h-6.7l-5.18-15.26Zm15.91-4.9-4.75-14c-1.08-3.17-1.8-6-2.52-8.85h-.15c-.72,2.88-1.51,5.83-2.44,8.78l-4.76,14Z"/><path class="cls-10" d="M204.64,122.8a15.63,15.63,0,0,1-6.41,1.15c-6.83,0-12-4.32-12-12.27,0-7.6,5.15-12.75,12.67-12.75a13.06,13.06,0,0,1,5.76,1.08l-.76,2.56a11.34,11.34,0,0,0-4.89-1c-5.69,0-9.47,3.64-9.47,10,0,5.94,3.42,9.75,9.32,9.75a12.39,12.39,0,0,0,5.11-1Z"/><path class="cls-10" d="M236.93,111.21c0,8.35-5.07,12.78-11.26,12.78-6.41,0-10.91-5-10.91-12.31,0-7.71,4.79-12.75,11.26-12.75C232.65,98.93,236.93,104,236.93,111.21Zm-18.82.39c0,5.19,2.8,9.83,7.74,9.83s7.77-4.57,7.77-10.08c0-4.82-2.52-9.86-7.74-9.86S218.11,106.28,218.11,111.6Z"/><path class="cls-10" d="M252.56,116,250,123.59H246.8L255,99.33h3.78l8.28,24.26h-3.35L261.16,116Zm7.95-2.45-2.37-7c-.54-1.59-.9-3-1.26-4.43h-.07c-.37,1.44-.76,2.92-1.23,4.39l-2.37,7Z"/><path class="cls-10" d="M295.25,122.8a15.63,15.63,0,0,1-6.41,1.15c-6.83,0-12-4.32-12-12.27,0-7.6,5.15-12.75,12.67-12.75a13.06,13.06,0,0,1,5.76,1.08l-.76,2.56a11.34,11.34,0,0,0-4.89-1c-5.69,0-9.47,3.64-9.47,10,0,5.94,3.42,9.75,9.32,9.75a12.39,12.39,0,0,0,5.11-1Z"/><path class="cls-10" d="M309.94,99.33v10.15h11.74V99.33h3.16v24.26h-3.16V112.22H309.94v11.37h-3.13V99.33Z"/><path class="cls-10" d="M341,99.33v24.26h-3.13V99.33Z"/><path class="cls-10" d="M354.15,123.59V99.33h3.42l7.77,12.27a68.5,68.5,0,0,1,4.36,7.89l.07,0c-.29-3.24-.36-6.19-.36-10V99.33h2.95v24.26h-3.17l-7.7-12.31a76.38,76.38,0,0,1-4.53-8.1l-.11,0c.18,3.06.25,6,.25,10v10.37Z"/><path class="cls-10" d="M403.93,122.51a22.66,22.66,0,0,1-7.45,1.33c-3.67,0-6.69-.93-9.07-3.2a12.49,12.49,0,0,1-3.38-9c0-7.23,5-12.52,13.14-12.52a15.06,15.06,0,0,1,6,1.11l-.75,2.56a12.54,12.54,0,0,0-5.37-1c-5.9,0-9.75,3.68-9.75,9.76s3.71,9.79,9.36,9.79a10.18,10.18,0,0,0,4.17-.65v-7.23h-4.93v-2.52h8Z"/></g></g></svg>