<svg width="56" height="72" viewBox="0 0 56 72" fill="none" xmlns="http://www.w3.org/2000/svg">
<path d="M41.5908 7.6001H48.3862C50.1884 7.6001 51.9169 8.34813 53.1912 9.67963C54.4656 11.0111 55.1816 12.817 55.1816 14.7001V64.3999C55.1816 66.283 54.4656 68.0889 53.1912 69.4204C51.9169 70.7519 50.1884 71.4999 48.3862 71.4999H7.61376C5.81151 71.4999 4.08307 70.7519 2.80869 69.4204C1.5343 68.0889 0.818359 66.283 0.818359 64.3999V14.7001C0.818359 12.817 1.5343 11.0111 2.80869 9.67963C4.08307 8.34813 5.81151 7.6001 7.61376 7.6001H14.4092" stroke="#F4EEE3" stroke-linecap="round" stroke-linejoin="round"/>
<path d="M38.193 0.5H17.8068C15.9303 0.5 14.4091 2.08938 14.4091 4.04999V11.15C14.4091 13.1106 15.9303 14.7 17.8068 14.7H38.193C40.0695 14.7 41.5907 13.1106 41.5907 11.15V4.04999C41.5907 2.08938 40.0695 0.5 38.193 0.5Z" stroke="#F4EEE3" stroke-linecap="round" stroke-linejoin="round"/>
</svg>
