<svg width="80" height="79" viewBox="0 0 80 79" fill="none" xmlns="http://www.w3.org/2000/svg">
<path d="M76.263 2.15779C79.363 13.6757 73.863 26.385 63.163 31.8461C57.963 34.4277 51.763 35.3213 45.963 34.1298C40.663 33.0376 34.263 29.6617 34.763 23.4063C35.263 17.3495 41.263 13.8742 46.963 14.6686C53.163 15.5622 57.663 20.7254 59.363 26.4843C62.763 37.4064 56.963 49.0236 48.363 55.8748C36.963 65.2082 20.763 65.9032 6.76299 64.3146C5.16299 64.116 5.16299 66.5983 6.76299 66.7969C20.863 68.3855 36.763 67.5912 48.563 58.9528C58.563 51.7045 65.463 38.5979 61.863 26.2857C60.063 20.0303 55.463 14.2714 48.863 12.6827C42.463 11.0941 35.563 13.6757 32.963 19.9311C31.863 22.6119 31.763 25.69 32.963 28.4702C34.263 31.4489 36.863 33.5341 39.763 34.9241C45.763 37.7043 52.863 37.9029 59.163 36.1157C65.463 34.3284 70.963 30.3567 74.663 24.8957C78.263 19.5339 80.063 12.782 79.363 6.32805C79.163 4.73938 78.963 3.15071 78.463 1.56204C78.163 -0.0266348 75.763 0.668409 76.263 2.15779Z" fill="#F4EEE3"/>
<path d="M17.6629 56.5698C12.5629 60.1443 6.96291 62.8252 0.862907 64.3146C-0.337093 64.6125 -0.237093 66.3004 0.862907 66.6976C6.56291 68.4849 11.3629 72.3572 14.2629 77.5204C15.0629 78.9105 17.2629 77.6197 16.4629 76.2296C13.1629 70.57 7.86291 66.2011 1.56291 64.3146C1.56291 65.1089 1.56291 65.9033 1.56291 66.6976C7.76291 65.1089 13.6629 62.3288 18.9629 58.6549C20.1629 57.7613 18.9629 55.5769 17.6629 56.5698Z" fill="#F4EEE3"/>
</svg>
