<svg width="139" height="41" viewBox="0 0 139 41" fill="none" xmlns="http://www.w3.org/2000/svg">
<path d="M7.15421 0.142667C4.30891 1.38188 1.18145 4.87833 0.193621 9.2705C-1.05758 14.8336 4.14822 17.1869 4.57555 16.4163C5.07805 15.5099 3.64273 15.2035 3.34723 12.3167C2.96538 8.58831 4.63247 4.42241 6.7307 2.59446C7.12017 2.25465 7.10192 2.72756 7.10192 3.60175C7.10192 5.1652 7.01885 19.2009 7.01885 22.1301C7.01885 26.0935 6.86143 27.3452 6.57845 28.5822C6.29221 29.8352 5.83138 30.6822 6.18027 31.0085C6.57028 31.3732 8.23546 30.5053 9.19933 29.1066C10.3552 27.429 10.7599 25.4139 10.8326 23.2263C10.9203 20.5888 10.9165 16.4033 10.9203 14.0161C10.9236 11.8268 10.9558 5.41582 10.8833 1.5617C10.8656 0.615866 8.34413 -0.375841 7.15421 0.142667ZM108.183 18.692C108.091 20.7527 107.652 22.3632 107.108 23.4993C106.054 25.6988 103.867 26.3815 102.938 23.2201C102.432 21.4966 102.408 18.6184 102.772 16.2133C103.142 13.7635 104.177 11.9132 105.889 12.08C107.578 12.2451 108.369 14.5077 108.183 18.692ZM79.7078 31.4766C79.6849 34.9003 79.1666 37.902 78.0554 38.7742C76.479 40.0106 74.3604 39.0829 74.7991 36.5846C75.1873 34.3738 77.0232 32.116 79.7124 29.3572C79.7124 29.3572 79.7179 29.9865 79.7078 31.4766ZM79.2775 18.6719C79.1811 20.5488 78.7132 22.434 78.2025 23.4993C77.1485 25.6988 74.9457 26.3864 74.0327 23.2201C73.4085 21.0566 73.558 18.257 73.8666 16.4928C74.2675 14.2038 75.2393 12.0802 76.9837 12.0802C78.6799 12.0802 79.5166 14.0152 79.2775 18.6719ZM62.7823 18.6436C62.6788 20.6309 62.3059 22.2924 61.7076 23.4993C60.6247 25.6838 58.4823 26.3764 57.5378 23.2201C56.8566 20.9441 57.0884 17.841 57.3717 16.1646C57.7922 13.6768 58.8451 11.9132 60.4888 12.0802C62.1771 12.2519 62.9977 14.508 62.7823 18.6436ZM138.375 20.9651C137.963 20.9651 137.774 21.4074 137.618 22.1516C137.078 24.7411 136.51 25.3253 135.777 25.3253C134.959 25.3253 134.224 24.0436 134.034 21.4774C133.886 19.4594 133.91 15.7446 134.1 12.0494C134.139 11.2902 133.937 10.5389 131.979 9.7992C131.136 9.48091 129.911 9.01224 129.301 10.5431C127.578 14.8685 126.903 18.3023 126.744 19.6967C126.736 19.7689 126.651 19.7839 126.636 19.6152C126.535 18.498 126.309 16.4676 126.281 12.2023C126.275 11.37 126.106 10.6618 125.223 10.0818C124.649 9.70519 122.909 9.03971 122.282 9.83177C121.739 10.4791 121.11 12.2218 120.456 14.2879C119.925 15.9672 119.555 17.1028 119.555 17.1028C119.555 17.1028 119.562 12.5724 119.569 10.8538C119.571 10.2056 119.144 9.9895 119.015 9.95042C118.435 9.77542 117.291 9.48289 116.805 9.48289C116.206 9.48289 116.06 9.83064 116.06 10.3381C116.06 10.4046 115.965 16.3028 115.965 20.4271C115.965 20.6063 115.965 20.8017 115.966 21.0096C115.635 22.9052 114.56 25.4782 113.392 25.4782C112.222 25.4782 111.67 24.4027 111.67 19.4858C111.67 16.6174 111.753 15.37 111.793 13.2954C111.817 12.1003 111.863 11.1828 111.86 10.9747C111.851 10.3361 110.79 10.0141 110.296 9.8952C109.799 9.77542 109.368 9.72869 109.031 9.7488C108.554 9.77712 108.216 10.1019 108.216 10.5494C108.216 10.7895 108.219 11.2454 108.219 11.2454C107.605 10.2418 106.617 9.54349 105.96 9.34101C104.19 8.79447 102.342 9.27871 100.949 11.306C99.8417 12.9165 99.1741 14.741 98.9113 17.3619C98.7193 19.2782 98.782 21.2211 99.1235 22.8644C98.7109 24.7187 97.9453 25.4782 97.1067 25.4782C95.8893 25.4782 95.0068 23.4127 95.1092 19.8395C95.1768 17.4893 95.6292 15.8401 96.1235 13.454C96.3343 12.4368 96.163 11.9044 95.7335 11.3941C95.3394 10.926 94.4997 10.6867 93.2932 10.9806C92.4336 11.1905 91.2045 11.4162 90.0799 11.5895C90.0799 11.5895 90.148 11.3077 90.2036 10.8116C90.4961 8.20913 87.7761 8.4201 86.9081 9.25125C86.3903 9.74766 86.0376 10.333 85.9039 11.3853C85.6915 13.0555 87.0015 13.8433 87.0015 13.8433C86.572 15.8891 85.5182 18.5612 84.4305 20.4933C83.8479 21.5284 83.4023 22.2955 82.8268 23.1108C82.8081 19.8389 82.8286 16.567 82.8884 13.2957C82.9121 12.1006 82.9581 11.2075 82.9557 10.999C82.9491 10.5324 82.6868 10.3557 82.1413 10.1325C81.6587 9.93485 81.0884 9.79835 80.4966 9.75021C79.7498 9.69018 79.2998 10.1016 79.3118 10.5887C79.314 10.6808 79.314 11.2454 79.314 11.2454C78.6998 10.2418 77.712 9.54349 77.0548 9.34101C75.2845 8.79447 73.4374 9.27871 72.044 11.306C70.9369 12.9165 70.2119 15.1768 70.0062 17.3421C69.815 19.3597 69.8502 21.0744 70.1111 22.5192C69.8298 23.9657 69.0203 25.4785 68.1055 25.4785C66.9354 25.4785 66.2698 24.4027 66.2698 19.4858C66.2698 16.6174 66.3526 15.37 66.3934 13.2954C66.4171 12.1006 66.4626 11.1828 66.4602 10.9747C66.4515 10.3361 65.3895 10.0144 64.8952 9.8952C64.3783 9.7706 63.9319 9.72529 63.589 9.75163C63.1369 9.78646 62.8188 10.2076 62.8188 10.5216V11.2454C62.2046 10.2418 61.2168 9.54349 60.5596 9.34101C58.7893 8.79447 56.9525 9.28664 55.5488 11.306C54.6337 12.6225 53.8926 14.0821 53.5113 17.3132C53.401 18.2468 53.3522 19.1216 53.3588 19.9386C52.9938 22.2595 51.3815 24.9345 50.063 24.9345C49.2914 24.9345 48.5563 23.3781 48.5563 20.0618C48.5563 15.6441 48.8194 9.35404 48.8641 8.74803C48.8641 8.74803 50.5301 8.71858 50.8526 8.71461C51.6838 8.70498 52.4363 8.72566 53.5434 8.66647C54.0985 8.6373 54.6334 6.56525 54.0604 6.30897C53.8005 6.19287 51.9651 6.09149 51.2374 6.07535C50.6257 6.06119 48.9224 5.92979 48.9224 5.92979C48.9224 5.92979 49.0752 1.75483 49.1109 1.31391C49.1408 0.946057 48.6833 0.756891 48.4212 0.642201C47.7834 0.36185 47.2128 0.227339 46.5365 0.0823489C45.6018 -0.118145 45.178 0.0781012 45.0952 0.897916C44.9705 2.1425 44.906 5.78792 44.906 5.78792C44.2202 5.78792 41.8774 5.64859 41.1916 5.64859C40.5543 5.64859 39.8663 8.49854 40.7476 8.53366C41.7613 8.57444 43.5281 8.61012 44.6992 8.64637C44.6992 8.64637 44.6469 15.0401 44.6469 17.0144C44.6469 17.224 44.648 17.4265 44.6491 17.6227C44.0045 21.1158 41.7341 23.0029 41.7341 23.0029C42.2216 20.6918 41.2256 18.9562 39.4316 17.4871C38.7706 16.9459 37.4657 15.9211 36.0059 14.7979C36.0059 14.7979 36.8513 13.9314 37.6014 12.1881C38.1325 10.9529 38.1556 9.54009 36.8513 9.22831C34.6964 8.71291 32.9199 10.3585 32.3899 12.1154C31.9791 13.4763 32.1981 14.4859 33.0027 15.5348C33.0612 15.6115 33.1252 15.69 33.1906 15.7687C32.7044 16.7434 32.0361 18.056 31.4701 19.0737C29.8992 21.8999 28.7125 24.1348 27.8156 24.1348C27.0988 24.1348 27.1083 21.8653 27.1083 19.7406C27.1083 17.909 27.2385 15.155 27.3426 12.3042C27.3769 11.3612 26.9231 10.824 26.1633 10.3375C25.7013 10.0419 24.7157 9.4608 24.1448 9.4608C23.2902 9.4608 20.8248 9.58172 18.4956 16.5877C18.202 17.4706 17.6252 19.0797 17.6252 19.0797L17.675 10.6547C17.675 10.457 17.5737 10.2662 17.3419 10.1356C16.9495 9.91389 15.9012 9.4608 14.9689 9.4608C14.525 9.4608 14.303 9.67545 14.303 10.1036L14.2218 23.2847C14.2218 24.2863 14.2469 25.4547 14.3422 25.9655C14.437 26.477 14.5909 26.8933 14.781 27.1408C14.9714 27.388 15.1912 27.5769 15.5537 27.6545C15.8911 27.7267 17.7388 27.9733 17.8349 27.2393C17.9498 26.3592 17.9545 25.4077 18.9246 21.8583C20.4351 16.3322 22.4042 13.6363 23.3302 12.6786C23.4923 12.5115 23.6769 12.5013 23.6679 12.7752C23.6287 13.9866 23.4896 17.0144 23.3961 19.5857C23.1453 26.4685 24.3494 27.7442 26.0704 27.7442C27.387 27.7442 29.2428 26.3841 31.2321 22.9412C32.3405 21.0225 33.4438 19.1006 34.542 17.1756C35.1447 17.7558 35.8215 18.3802 36.4975 19.0474C38.069 20.5981 38.5849 22.0718 38.2425 23.4696C37.981 24.538 36.9948 25.6393 35.2401 24.5692C34.7286 24.2568 34.5101 24.0153 33.9959 23.6633C33.7198 23.4744 33.2979 23.4178 33.0449 23.616C32.388 24.1308 32.0121 24.7861 31.7975 25.5971C31.5889 26.3864 32.349 26.8035 33.1372 27.1685C33.8156 27.4826 35.2741 27.7672 36.2039 27.7994C39.8276 27.9255 42.7307 25.9803 44.7515 20.9626C45.1132 25.2961 46.6526 27.7482 49.3274 27.7482C51.1157 27.7482 52.9086 25.3448 53.6927 22.9805C53.9177 23.9442 54.251 24.7824 54.6813 25.4912C56.7423 28.8866 60.7404 28.156 62.7488 25.2726C63.3698 24.3817 63.4643 24.0617 63.4643 24.0617C63.7573 26.7839 65.8659 27.7352 67.073 27.7352C68.4252 27.7352 69.821 27.0705 70.7996 24.7801C70.9143 25.0288 71.0396 25.2664 71.1763 25.4912C73.2372 28.8866 77.2356 28.156 79.244 25.2726C79.3388 25.1372 79.421 25.0149 79.4927 24.9045L79.5515 26.6928L77.7025 28.4561C74.6031 31.4097 72.2488 33.6497 72.0756 36.2587C71.855 39.5852 74.4484 40.8216 76.4131 40.9836C78.4958 41.1555 80.2828 39.9582 81.3793 38.2826C82.3445 36.8075 82.9764 33.633 82.9298 30.4979C82.9115 29.2423 82.8808 27.646 82.8571 25.9347C83.9451 24.621 85.171 22.9604 86.2996 21.0172C87.5296 18.8993 88.8478 16.055 89.5227 13.8414C89.5227 13.8414 90.6679 13.8518 91.8903 13.7686C92.2811 13.742 92.3936 13.8252 92.3211 14.1228C92.234 14.483 90.7769 20.326 92.1068 24.2183C93.0167 26.8831 95.0684 27.74 96.2847 27.74C97.7089 27.74 99.0709 26.622 99.8008 24.9619C99.8891 25.1469 99.9809 25.3258 100.081 25.4915C102.142 28.8869 106.127 28.1514 108.149 25.2726C108.606 24.623 108.865 24.0617 108.865 24.0617C109.298 26.8794 111.406 27.7496 112.613 27.7496C113.87 27.7496 115.064 27.2135 116.032 24.8317C116.072 25.8806 116.136 26.7381 116.236 27.0082C116.298 27.1739 116.655 27.3812 116.915 27.4814C118.065 27.9249 119.238 27.7153 119.672 27.6242C119.973 27.5607 120.207 27.3098 120.239 26.6625C120.324 24.9619 120.272 22.1049 120.768 19.9813C121.6 16.418 122.376 15.0358 122.745 14.3517C122.951 13.9679 123.183 13.9048 123.192 14.3106C123.209 15.1318 123.248 17.5426 123.571 20.7822C123.808 23.1643 124.124 24.5726 124.367 25.0186C125.061 26.2929 125.917 26.3532 126.615 26.3532C127.059 26.3532 127.987 26.2258 127.904 25.4148C127.864 25.0194 127.934 22.5761 128.755 19.0655C129.291 16.7729 130.184 14.7017 130.506 13.9442C130.625 13.6649 130.681 13.885 130.678 13.928C130.611 15.5068 130.458 20.6709 131.077 23.4953C131.916 27.3214 134.341 27.7496 135.187 27.7496C136.991 27.7496 138.467 26.3224 138.964 22.5668C139.084 21.6629 138.907 20.9651 138.375 20.9651Z" fill="#946A57"/>
</svg>
