<svg width="14" height="25" viewBox="0 0 14 25" fill="none" xmlns="http://www.w3.org/2000/svg">
<path d="M0.535359 0.550288C0.19257 0.902744 8.95325e-07 1.38071 8.74263e-07 1.87909C8.53202e-07 2.37746 0.19257 2.85543 0.535359 3.20788L9.58641 12.5113L0.535358 21.8148C0.202283 22.1693 0.0179821 22.644 0.0221481 23.1368C0.0263142 23.6296 0.218615 24.101 0.557632 24.4495C0.89665 24.798 1.35526 24.9956 1.83468 24.9999C2.31411 25.0042 2.77599 24.8148 3.12085 24.4724L13.4646 13.8401C13.8074 13.4877 14 13.0097 14 12.5113C14 12.013 13.8074 11.535 13.4646 11.1825L3.12085 0.550288C2.77796 0.197939 2.31296 -5.28397e-07 1.8281 -5.50318e-07C1.34325 -5.72239e-07 0.878253 0.197938 0.535359 0.550288Z" fill="#946A57"/>
</svg>
