<svg width="15" height="27" viewBox="0 0 15 27" fill="none" xmlns="http://www.w3.org/2000/svg">
<path d="M12.0277 26.4657L0.380184 14.4974C0.241935 14.3549 0.144239 14.2005 0.0870964 14.0343C0.0290319 13.8681 0 13.69 0 13.5C0 13.31 0.0290319 13.1319 0.0870964 12.9657C0.144239 12.7995 0.241935 12.6451 0.380184 12.5026L12.0277 0.498681C12.3502 0.166227 12.7535 0 13.2373 0C13.7212 0 14.1359 0.1781 14.4816 0.534301C14.8272 0.890501 15 1.30607 15 1.781C15 2.25594 14.8272 2.6715 14.4816 3.0277L4.32028 13.5L14.4816 23.9723C14.8041 24.3047 14.9654 24.7141 14.9654 25.2005C14.9654 25.6878 14.7926 26.1095 14.447 26.4657C14.1014 26.8219 13.6982 27 13.2373 27C12.7765 27 12.3733 26.8219 12.0277 26.4657Z" fill="#603D2F"/>
</svg>
