<svg width="72" height="73" viewBox="0 0 72 73" fill="none" xmlns="http://www.w3.org/2000/svg">
<g clip-path="url(#clip0_49_1111)">
<path d="M59.2733 63.2727C55.1272 66.8773 50.2005 69.4696 44.8817 70.8454C39.5628 72.2212 33.9971 72.3428 28.6233 71.2007C23.2494 70.0586 18.2142 67.6839 13.9146 64.2639C9.615 60.8439 6.16847 56.472 3.84669 51.4929C1.5249 46.5137 0.391307 41.0633 0.535251 35.5712C0.679195 30.0792 2.09674 24.6957 4.67617 19.845C7.2556 14.9942 10.9264 10.8089 15.3992 7.61881C19.8721 4.42874 25.0247 2.32111 30.4511 1.46207M40.323 1.28882C46.3477 2.02848 52.0818 4.30162 56.9768 7.8908C61.8719 11.48 65.7641 16.2651 68.2812 21.7885C70.7983 27.3119 71.856 33.3888 71.3533 39.4378C70.8505 45.4869 68.804 51.3057 65.4096 56.3378" stroke="#F4EEE3" stroke-width="0.9" stroke-linecap="round" stroke-linejoin="round"/>
<path d="M36 27.0091C30.2844 8.96138 -0.186103 31.0681 36 52.6402ZM36 27.0091C41.7156 8.96138 72.1862 31.0681 36 52.6402Z" stroke="#F4EEE3" stroke-width="0.9" stroke-linecap="round" stroke-linejoin="round"/>
</g>
<defs>
<clipPath id="clip0_49_1111">
<rect width="72" height="72" fill="white" transform="translate(0 0.5)"/>
</clipPath>
</defs>
</svg>
