<svg width="54" height="73" viewBox="0 0 54 73" fill="none" xmlns="http://www.w3.org/2000/svg">
<path d="M27.0001 24.9589C33.374 24.9589 38.5411 19.7918 38.5411 13.4178C38.5411 7.04383 33.374 1.87671 27.0001 1.87671C20.6261 1.87671 15.459 7.04383 15.459 13.4178C15.459 19.7918 20.6261 24.9589 27.0001 24.9589Z" stroke="#F4EEE3" stroke-width="0.972973" stroke-linecap="round" stroke-linejoin="round"/>
<path d="M10.946 54.9443L32.3514 33.0216C33.4029 31.9146 34.6687 31.0332 36.0716 30.4308C37.4746 29.8284 38.9854 29.5178 40.5122 29.5178C42.039 29.5178 43.5498 29.8284 44.9528 30.4308C46.3558 31.0332 47.6215 31.9146 48.673 33.0216C50.762 35.2253 51.9264 38.146 51.9264 41.1824C51.9264 44.2188 50.762 47.1396 48.673 49.3433C41.3595 56.8708 27.0001 71.4443 27.0001 71.4443C27.0001 71.4443 12.7298 56.6746 5.46978 49.3433C4.38298 48.2801 3.51947 47.0106 2.92994 45.6092C2.34042 44.2078 2.03674 42.7028 2.03674 41.1824C2.03674 39.6621 2.34042 38.1571 2.92994 36.7557C3.51947 35.3543 4.38298 34.0848 5.46978 33.0216C7.66928 30.9246 10.5916 29.7548 13.6306 29.7548C16.6696 29.7548 19.5919 30.9246 21.7914 33.0216L43.3038 54.9443" stroke="#F4EEE3" stroke-width="0.972973" stroke-linecap="round" stroke-linejoin="round"/>
</svg>
