<svg width="79" height="63" viewBox="0 0 79 63" fill="none" xmlns="http://www.w3.org/2000/svg">
<path d="M71.7293 35.7996C70.7028 35.0174 69.5073 34.4834 68.2375 34.2397C72.7274 29.1607 75 24.0759 75 19.049C75 10.7519 68.2812 4.00017 60.026 4.00017C56.0505 3.98121 52.2286 5.52599 49.3934 8.29778C46.5583 5.52599 42.7364 3.98121 38.7609 4.00017C30.5057 4.00017 23.7869 10.7519 23.7869 19.049C23.7869 21.9865 24.5784 24.9239 26.1788 27.9337C24.9013 28.458 23.7412 29.2292 22.7655 30.2026L16.5123 36.4131H9.81967C8.2762 36.4131 6.79594 37.0229 5.70454 38.1084C4.61314 39.1939 4 40.6661 4 42.2011L4 53.7772C4 55.3123 4.61314 56.7845 5.70454 57.8699C6.79594 58.9554 8.2762 59.5652 9.81967 59.5652H38.918C39.2035 59.5654 39.4879 59.5304 39.7648 59.461L58.3877 54.8306C58.5659 54.7872 58.7401 54.7291 58.9086 54.657L70.2046 49.8703C70.2715 49.8442 70.3355 49.8153 70.3995 49.7835C71.6629 49.1549 72.7446 48.2169 73.5429 47.0579C74.3412 45.8989 74.8299 44.5569 74.9629 43.1582C75.0959 41.7596 74.8689 40.3502 74.3032 39.0629C73.7375 37.7756 72.8518 36.6526 71.7293 35.7996ZM38.7609 10.9458C40.3342 10.9217 41.8789 11.3648 43.1976 12.2185C44.5163 13.0722 45.5489 14.2977 46.1635 15.7383C46.4266 16.3752 46.8741 16.92 47.4492 17.3034C48.0243 17.6868 48.7011 17.8915 49.3934 17.8915C50.0858 17.8915 50.7625 17.6868 51.3376 17.3034C51.9128 16.92 52.3603 16.3752 52.6234 15.7383C53.238 14.2977 54.2706 13.0722 55.5893 12.2185C56.908 11.3648 58.4527 10.9217 60.026 10.9458C64.3558 10.9458 68.0164 14.6559 68.0164 19.049C68.0164 24.2756 63.6516 30.2894 55.3935 36.4681L54.0492 36.7778V36.4131C54.0492 33.957 53.0682 31.6015 51.3219 29.8647C49.5757 28.128 47.2073 27.1523 44.7377 27.1523H33.8869C31.7657 24.1888 30.7705 21.5871 30.7705 19.049C30.7705 14.6559 34.4311 10.9458 38.7609 10.9458ZM10.9836 43.3587H14.4754V52.6196H10.9836V43.3587ZM67.3413 43.5353L56.4265 48.1657L38.4874 52.6196H21.459V41.3329L27.7035 35.1224C28.0263 34.7979 28.4106 34.5402 28.8341 34.3644C29.2577 34.1885 29.7121 34.098 30.1711 34.0979H44.7377C45.3551 34.0979 45.9472 34.3418 46.3838 34.776C46.8203 35.2102 47.0656 35.7991 47.0656 36.4131C47.0656 37.0271 46.8203 37.616 46.3838 38.0502C45.9472 38.4844 45.3551 38.7283 44.7377 38.7283H36.5902C35.6641 38.7283 34.7759 39.0942 34.1211 39.7455C33.4662 40.3968 33.0984 41.2801 33.0984 42.2011C33.0984 43.1222 33.4662 44.0055 34.1211 44.6568C34.7759 45.3081 35.6641 45.674 36.5902 45.674H45.9016C46.165 45.674 46.4275 45.6449 46.6844 45.5871L66.1803 41.1275L66.317 41.0927C66.5158 41.039 66.7243 41.0314 66.9265 41.0707C67.1287 41.11 67.319 41.1951 67.4828 41.3194C67.6465 41.4436 67.7793 41.6037 67.8709 41.7873C67.9624 41.9708 68.0102 42.1728 68.0106 42.3777C68.012 42.6123 67.9508 42.843 67.8332 43.0464C67.7156 43.2498 67.5459 43.4185 67.3413 43.5353Z" fill="#F4EEE3" stroke="#442E24" stroke-width="6.17391"/>
</svg>
