<svg width="57" height="78" viewBox="0 0 57 78" fill="none" xmlns="http://www.w3.org/2000/svg">
<path d="M28.5 75.551C26.6246 75.551 24.9925 74.9257 23.6036 73.6752C22.2175 72.4273 21.3926 70.8702 21.1289 69.0038H35.8711C35.6102 70.8675 34.7853 72.4246 33.3964 73.6752C32.0102 74.9257 30.3781 75.551 28.5 75.551ZM16.2692 61.8367C15.6903 61.8367 15.2052 61.6436 14.8138 61.2573C14.4251 60.8711 14.2308 60.3889 14.2308 59.8109C14.2308 59.2356 14.4251 58.7548 14.8138 58.3686C15.2052 57.9796 15.6903 57.7852 16.2692 57.7852H40.7308C41.3097 57.7852 41.7948 57.9796 42.1862 58.3686C42.5749 58.7548 42.7692 59.2356 42.7692 59.8109C42.7692 60.3889 42.5749 60.8711 42.1862 61.2573C41.7948 61.6436 41.3097 61.8367 40.7308 61.8367H16.2692ZM14.4672 50.6181C10.6132 48.1088 7.5718 44.927 5.34308 41.0727C3.11436 37.2184 2 32.9724 2 28.3348C2 20.9854 4.56846 14.7595 9.70538 9.65734C14.8423 4.55515 21.1072 2.0027 28.5 2C35.8955 2 42.1604 4.55245 47.2946 9.65734C52.4288 14.7622 54.9973 20.9881 55 28.3348C55 32.9724 53.8856 37.2184 51.6569 41.0727C49.4282 44.927 46.3868 48.1088 42.5328 50.6181H14.4672ZM15.6577 46.5666H41.3423C44.4 44.4058 46.7619 41.7385 48.428 38.5648C50.0941 35.3912 50.9258 31.9811 50.9231 28.3348C50.9231 22.1225 48.7487 16.8555 44.4 12.5339C40.0513 8.21231 34.7513 6.0515 28.5 6.0515C22.2487 6.0515 16.9487 8.21231 12.6 12.5339C8.25128 16.8555 6.07692 22.1225 6.07692 28.3348C6.07692 31.9811 6.90997 35.3912 8.57608 38.5648C10.2422 41.7385 12.6027 44.4058 15.6577 46.5666Z" fill="#F4EEE3" stroke="#442E24" stroke-width="3"/>
<path d="M36.7856 16.0073C35.2656 14.4842 33.3277 13.4466 31.2174 13.026C29.1071 12.6053 26.9194 12.8206 24.9316 13.6445C22.9438 14.4683 21.2452 15.8638 20.0512 17.6539C18.8572 19.444 18.2215 21.5483 18.2246 23.7001C18.2246 24.0761 18.374 24.4367 18.6398 24.7025C18.9057 24.9684 19.2662 25.1177 19.6422 25.1177C20.0182 25.1177 20.3787 24.9684 20.6446 24.7025C20.9104 24.4367 21.0598 24.0761 21.0598 23.7001C21.0561 22.106 21.5256 20.5467 22.4089 19.2196C23.2922 17.8926 24.5496 16.8576 26.0216 16.2459C27.4937 15.6341 29.1142 15.4731 30.6779 15.7831C32.2416 16.0932 33.678 16.8605 34.8052 17.9877C35.9325 19.1149 36.6997 20.5514 37.0098 22.115C37.3199 23.6787 37.1588 25.2992 36.5471 26.7713C35.9353 28.2434 34.9003 29.5007 33.5733 30.384C32.2463 31.2673 30.6869 31.7369 29.0928 31.7331C28.7184 31.738 28.3606 31.889 28.0958 32.1538C27.831 32.4186 27.6801 32.7763 27.6752 33.1507V36.931C27.6752 37.3069 27.8246 37.6675 28.0904 37.9334C28.3563 38.1992 28.7168 38.3486 29.0928 38.3486C29.4688 38.3486 29.8293 38.1992 30.0952 37.9334C30.361 37.6675 30.5104 37.3069 30.5104 36.931V34.4738C32.5197 34.2046 34.4139 33.3798 35.9797 32.0922C37.5455 30.8046 38.7207 29.1054 39.373 27.186C40.0252 25.2666 40.1286 23.2032 39.6715 21.2282C39.2143 19.2531 38.2149 17.445 36.7856 16.0073Z" fill="#F4EEE3" stroke="#442E24" stroke-width="2"/>
</svg>
