<svg width="61" height="84" viewBox="0 0 61 84" fill="none" xmlns="http://www.w3.org/2000/svg">
<path d="M30.7083 82.1802C28.6767 82.1802 26.9085 81.4985 25.4039 80.1353C23.9022 78.7749 23.0086 77.0775 22.723 75.0428H38.6937C38.411 77.0745 37.5174 78.772 36.0128 80.1353C34.5111 81.4985 32.7429 82.1802 30.7083 82.1802ZM17.4583 67.2298C16.8312 67.2298 16.3056 67.0192 15.8816 66.5982C15.4605 66.1771 15.25 65.6515 15.25 65.0214C15.25 64.3942 15.4605 63.8701 15.8816 63.4491C16.3056 63.0251 16.8312 62.8131 17.4583 62.8131H43.9583C44.5855 62.8131 45.1111 63.0251 45.5351 63.4491C45.9561 63.8701 46.1667 64.3942 46.1667 65.0214C46.1667 65.6515 45.9561 66.1771 45.5351 66.5982C45.1111 67.0192 44.5855 67.2298 43.9583 67.2298H17.4583ZM15.5062 55C11.3309 52.2646 8.03611 48.7961 5.62167 44.5943C3.20722 40.3926 2 35.7639 2 30.7083C2 22.6965 4.7825 15.9096 10.3475 10.3475C15.9125 4.78544 22.6994 2.00294 30.7083 2C38.7202 2 45.5071 4.7825 51.0692 10.3475C56.6312 15.9125 59.4137 22.6994 59.4167 30.7083C59.4167 35.7639 58.2094 40.3926 55.795 44.5943C53.3806 48.7961 50.0857 52.2646 45.9105 55H15.5062ZM16.7958 50.5833H44.6208C47.9333 48.2278 50.4921 45.3201 52.297 41.8604C54.1019 38.4007 55.0029 34.6833 55 30.7083C55 23.9361 52.6444 18.1944 47.9333 13.4833C43.2222 8.77222 37.4806 6.41667 30.7083 6.41667C23.9361 6.41667 18.1944 8.77222 13.4833 13.4833C8.77222 18.1944 6.41667 23.9361 6.41667 30.7083C6.41667 34.6833 7.31914 38.4007 9.12408 41.8604C10.929 45.3201 13.4863 48.2278 16.7958 50.5833Z" fill="#F4EEE3" stroke="#442E24" stroke-width="3"/>
<path d="M37.8245 17.6595C36.4192 16.2513 34.6275 15.292 32.6765 14.9031C30.7255 14.5142 28.7029 14.7132 26.8651 15.4749C25.0273 16.2366 23.457 17.5267 22.3531 19.1817C21.2492 20.8368 20.6615 22.7823 20.6643 24.7717C20.6643 25.1192 20.8024 25.4526 21.0482 25.6984C21.294 25.9442 21.6273 26.0823 21.9749 26.0823C22.3225 26.0823 22.6559 25.9442 22.9017 25.6984C23.1474 25.4526 23.2855 25.1192 23.2855 24.7717C23.2821 23.2978 23.7162 21.8562 24.5328 20.6293C25.3495 19.4024 26.5119 18.4456 27.8729 17.88C29.2338 17.3144 30.7321 17.1655 32.1777 17.4522C33.6234 17.7388 34.9514 18.4482 35.9936 19.4903C37.0357 20.5325 37.7451 21.8605 38.0317 23.3062C38.3184 24.7518 38.1695 26.2501 37.6039 27.611C37.0383 28.972 36.0815 30.1345 34.8546 30.9511C33.6277 31.7678 32.1861 32.2019 30.7123 32.1984C30.3661 32.2029 30.0353 32.3425 29.7905 32.5873C29.5457 32.8321 29.4062 33.1628 29.4017 33.509V37.0039C29.4017 37.3515 29.5397 37.6849 29.7855 37.9307C30.0313 38.1765 30.3647 38.3145 30.7123 38.3145C31.0599 38.3145 31.3932 38.1765 31.639 37.9307C31.8848 37.6849 32.0229 37.3515 32.0229 37.0039V34.7322C33.8805 34.4834 35.6317 33.7208 37.0794 32.5304C38.527 31.34 39.6135 29.769 40.2165 27.9944C40.8196 26.2199 40.9152 24.3122 40.4925 22.4862C40.0699 20.6603 39.1459 18.9886 37.8245 17.6595Z" fill="#F4EEE3" stroke="#442E24" stroke-width="2"/>
</svg>
