<?xml version="1.0" encoding="UTF-8"?> <!-- Generator: Adobe Illustrator 22.1.0, SVG Export Plug-In . SVG Version: 6.00 Build 0) --> <svg xmlns="http://www.w3.org/2000/svg" xmlns:xlink="http://www.w3.org/1999/xlink" id="Layer_1" x="0px" y="0px" viewBox="0 0 764.5 153.9" style="enable-background:new 0 0 764.5 153.9;" xml:space="preserve"> <style type="text/css"> .st0{fill:url(#SVGID_1_);} .st1{fill:url(#SVGID_2_);} </style> <path d="M488.3,28.4c-2.3-5.4-5.9-10-10.9-13.6c-5-3.6-11.3-6.4-19.1-8.3C450.4,4.6,441,3.6,430,3.6h-76.6v141.9h12.9V90.9H430 c11,0,20.4-0.9,28.2-2.8s14.2-4.7,19.1-8.4c4.9-3.7,8.6-8.3,10.9-13.7c2.3-5.4,3.5-11.7,3.5-18.8S490.6,33.8,488.3,28.4z M475.9,61.5c-1.8,3.8-4.1,6.8-7,9.2c-2.9,2.3-6.3,4.1-10.1,5.2c-3.8,1.1-7.8,1.9-12,2.4c-4.2,0.4-8.5,0.7-12.8,0.6 c-4.3,0-8.4,0-12.1,0h-55.5V15.7h55.5c9.8,0,18.2,0.4,25.4,1.1c7.1,0.8,13,2.2,17.7,4.5c4.6,2.2,8.1,5.4,10.3,9.5s3.4,9.6,3.4,16.3 C478.5,53,477.7,57.7,475.9,61.5z"></path> <path d="M744.7,3.6v45.6c-3.6,5.3-7.6,10.3-12.2,15.2c-4.5,4.8-9.6,9.1-15.2,12.7c-5.6,3.7-11.7,6.6-18.4,8.8 c-6.7,2.2-14.1,3.2-22.2,3.2c-10.4,0-19.1-1.3-26.1-3.8c-7-2.5-12.7-6.1-17.1-10.7c-4.3-4.6-7.4-10.1-9.3-16.6 c-1.9-6.5-2.8-13.6-2.8-21.5V6.1L613,3.6l-7.6-1.8c-1.5-0.3-3-0.5-4.4-0.7c-1.4-0.2-3-0.4-4.6-0.6c-1.6-0.2-3.4-0.3-5.3-0.4 c-1.9-0.1-4.1-0.2-6.5-0.2c-7,0-13.8,0.8-20.4,2.4c-6.6,1.6-12.9,3.9-18.8,6.7c-6,2.9-11.7,6.3-17.1,10.3c-5.4,4-10.4,8.4-15,13.1 V3.6h-12.9v141.8h12.9V47c4-4.8,8.5-9.4,13.4-13.7c5-4.3,10.3-8.1,16.2-11.3c5.8-3.2,12.1-5.8,18.9-7.7c6.8-1.9,14-2.8,21.7-2.8 c5.6,0,10.1,0.4,13.7,1.1c3.5,0.7,6.3,1.4,8.3,2c0,0,2.3,0.8,2.8,1.2v23.6c0,5.2,0.5,10.3,1.4,15.3c0.9,5,2.4,9.8,4.5,14.4 c2.1,4.6,4.9,8.8,8.3,12.7c3.4,3.9,7.7,7.2,12.6,10.1c5,2.8,10.8,5,17.5,6.7c6.7,1.6,14.4,2.4,23.1,2.4c7.6,0,14.9-0.9,21.8-2.8 c6.9-1.9,13.3-4.4,19.1-7.5c5.9-3.1,11.2-6.7,16-10.8c4.8-4.1,8.8-8.4,12.1-12.9v26.8c0,6.9-1.9,13-5.6,18.3 c-3.8,5.3-8.8,9.8-15.3,13.4c-6.4,3.6-14,6.4-22.6,8.3c-8.7,1.9-17.9,2.8-27.9,2.8c-7,0-13.5-0.3-19.5-1c-6-0.7-11.7-1.6-17-2.8 c-5.3-1.2-10.3-2.6-15-4.2c-4.7-1.6-9.2-3.3-13.6-5.2v15c8.2,3,17.8,5.4,28.7,7.1c10.9,1.7,23,2.5,36,2.5c12,0,23.2-1.1,33.6-3.3 c10.4-2.2,19.3-5.5,26.9-10c7.6-4.5,13.6-10.1,17.9-16.9c4.3-6.8,6.5-14.8,6.5-24.1v-90H744.7z"></path> <linearGradient id="SVGID_1_" gradientUnits="userSpaceOnUse" x1="190.3524" y1="109.789" x2="190.3524" y2="109.789"> <stop offset="0" style="stop-color:#2484C6"></stop> <stop offset="1" style="stop-color:#2484C6;stop-opacity:0"></stop> </linearGradient> <path class="st0" d="M190.4,109.8"></path> <linearGradient id="SVGID_2_" gradientUnits="userSpaceOnUse" x1="164.2218" y1="137.7369" x2="164.2218" y2="137.7369" gradientTransform="matrix(1.0042 3.100000e-02 2.350000e-02 1.1783 -3.357 -27.9966)"> <stop offset="0" style="stop-color:#2484C6"></stop> <stop offset="1" style="stop-color:#2484C6;stop-opacity:0"></stop> </linearGradient> <path class="st1" d="M164.8,139.4"></path> <path d="M325.7,3.9V106c-4,3.4-8.8,6.9-14.5,10.5c-5.7,3.7-11.9,7-18.7,10c-6.8,3-14.1,5.5-21.7,7.4c-7.7,2-15.6,2.9-23.6,2.9 c-6.9,0-13.2-0.6-18.7-1.7c-5.5-1.1-10.2-3.2-14.1-6.1c-3.9-2.9-6.9-6.9-8.9-12c-2.1-5.1-3.1-11.6-3-19.5V3.9h-13.2v96.4 c0,4.4,0.4,8.5,1.3,12.5l0,0c-9.3,5.9-20.4,11.3-31.7,15.3c-4.3,1.6-9.1,3.1-14.4,4.3c-5.2,1.3-10.7,2.3-16.4,3 c-5.7,0.8-11.4,1.1-16.9,1.1c-13.1,0-24.5-1.3-34.3-4c-9.8-2.7-18.1-6.5-24.8-11.4c-6.7-5-11.9-11-15.5-18.1 c-2-3.9-3.6-8.2-4.7-12.6c4.8-2.1,8.5-6.2,10.1-11.2h139.4v-3.2c0-11.4-1.8-21.7-5.4-30.8c-3.6-9.1-8.8-16.9-15.7-23.3 c-6.9-6.4-15.3-11.3-25.4-14.8s-21.5-5.2-34.4-5.2c-12.4,0-23.7,1.8-34,5.4C56,11,47.2,16,39.8,22.5C32.5,29,26.7,36.7,22.6,45.7 C21.2,49,19.9,52.4,19,56c-7.7,2.2-13.3,9.3-13.3,17.7c0,8,5.2,14.9,12.3,17.4c1.1,5.1,2.7,10,4.9,14.6c4.3,8.9,10.3,16.6,18.2,22.9 c7.9,6.3,17.4,11.1,28.7,14.5c11.2,3.4,23.8,5.1,37.7,5.1c6,0,11.5-0.2,16.5-0.6c5-0.4,9.9-1,14.7-1.8c4.8-0.8,9.7-1.8,14.7-3.1l0,0 c15.7-3.8,30-9.7,42.5-16.4c2,3.4,4.5,6.4,7.5,9.2c4.7,4.3,10.6,7.7,17.8,10.1c7.1,2.4,15.4,3.6,25,3.6c8.5,0,16.5-0.9,24-2.7 c7.6-1.8,14.7-4.1,21.3-6.9c6.6-2.8,12.8-5.8,18.5-9.2c5.7-3.3,11-6.5,15.8-9.6v25h13.2V3.9H325.7z M36,47.2 c3.3-6.6,7.8-12.3,13.6-17.3c5.8-5,12.8-9,21.2-11.9s18-4.4,29.1-4.4c11.8,0,21.9,1.5,30.3,4.4c8.4,3,15.4,7,20.9,12 c5.5,5,9.6,10.8,12.3,17.4c2.8,6.6,4.4,13.5,4.9,20.7H41.7c-1.6-4.8-5.1-8.8-9.6-11C33.1,53.7,34.4,50.4,36,47.2z M24.1,84.1 c-2.9,0-5.5-1.2-7.4-3.1c-1.9-1.9-3-4.5-3-7.3c0-3,1.3-5.8,3.4-7.7c1.9-1.7,4.3-2.8,7-2.8c2.2,0,4.3,0.7,6,1.9 c1.1,0.8,2,1.8,2.7,2.9c1,1.6,1.7,3.6,1.7,5.6c0,2.1-0.6,4-1.7,5.6c-0.8,1.2-1.7,2.2-2.9,3C28.4,83.4,26.3,84.1,24.1,84.1z"></path> </svg> 