<svg width="20" height="20" viewBox="0 0 20 20" fill="none" xmlns="http://www.w3.org/2000/svg">
<path d="M19 6V14C19 15.3261 18.4732 16.5979 17.5355 17.5355C16.5979 18.4732 15.3261 19 14 19H6C4.67392 19 3.40215 18.4732 2.46447 17.5355C1.52678 16.5979 1 15.3261 1 14V6C1 4.67392 1.52678 3.40215 2.46447 2.46447C3.40215 1.52678 4.67392 1 6 1H14C15.3261 1 16.5979 1.52678 17.5355 2.46447C18.4732 3.40215 19 4.67392 19 6Z" stroke="#CF7C29" stroke-width="1.5" stroke-linecap="round" stroke-linejoin="round"/>
<path d="M9 19V10C9 7.812 9.5 6 13 6M7 11H13" stroke="#CF7C29" stroke-width="1.5" stroke-linecap="round" stroke-linejoin="round"/>
</svg>
