<svg width="80" height="72" viewBox="0 0 80 72" fill="none" xmlns="http://www.w3.org/2000/svg">
<path d="M40.7543 66.0183C37.5859 68.9665 39.5326 62.9264 35.4809 64.448L35.4809 63.5755C33.1735 64.4406 33.0606 61.6095 30.7387 60.7838C29.5796 60.3737 29.5271 60.4613 28.6881 59.5625L26.5944 57.1197C25.534 55.9804 24.2387 57.0665 23.891 55.5494C23.5432 54.0323 19.3313 54.2451 19.7896 52.7577C20.9956 48.8351 13.104 50.1997 13.3337 46.0766L8.49223 37.9958C8.63848 35.3841 8.34236 32.7304 8.04819 30.1029C7.93683 29.0864 7.81947 28.0754 7.73645 27.0773C7.70393 26.7031 7.75708 26.3265 7.89185 25.9759C8.02663 25.6254 8.2395 25.3101 8.5143 25.0541C10.7777 22.9481 14.7393 22.2639 17.2868 23.7076C20.7472 25.5845 22.9427 28.5039 24.0489 32.2689L24.2047 32.8577L39.1087 18.9896C39.8433 18.3055 40.7342 17.8115 41.7035 17.5509C42.6729 17.2903 43.6914 17.2709 44.67 17.4944C45.6486 17.7179 46.5576 18.1776 47.3177 18.8332C48.0778 19.4889 48.6659 20.3206 49.0306 21.2558C50.2253 20.6296 51.5927 20.4135 52.9223 20.6408C54.2519 20.8681 55.4698 21.5261 56.3887 22.5136C57.3075 23.5011 57.8763 24.7633 58.0074 26.1057C58.1384 27.4482 57.8245 28.7965 57.114 29.9431C58.0206 30.3741 58.8079 31.0205 59.4072 31.8258C60.0065 32.6311 60.3996 33.5708 60.5521 34.5629C60.7047 35.5551 60.6121 36.5695 60.2824 37.5176C59.9528 38.4658 59.3961 39.3188 58.6609 40.0023L58.4057 40.2397C59.278 40.6956 60.0282 41.3541 60.5932 42.16C61.1582 42.9659 61.5216 43.8956 61.6527 44.8711C61.7839 45.8465 61.679 46.8392 61.347 47.7657C61.0149 48.6923 60.4654 49.5256 59.7445 50.1957L40.7543 66.0183ZM53.0745 33.9987L41.0673 45.1713C40.6692 45.5417 40.1403 45.7388 39.5969 45.7193C39.0535 45.6997 38.5402 45.4651 38.1698 45.067C37.7994 44.6689 37.6023 44.14 37.6219 43.5967C37.6414 43.0533 37.8761 42.5399 38.2741 42.1695L53.2832 28.2037C53.6813 27.8333 53.9159 27.3199 53.9354 26.7765C53.955 26.2332 53.7579 25.7043 53.3875 25.3062C53.0171 24.9081 52.5038 24.6735 51.9604 24.6539C51.417 24.6344 50.8881 24.8315 50.49 25.2019L35.4809 39.1677C35.0829 39.5381 34.554 39.7352 34.0106 39.7156C33.4672 39.6961 32.9539 39.4614 32.5835 39.0634C32.2131 38.6653 32.016 38.1364 32.0355 37.593C32.0551 37.0496 32.2897 36.5363 32.6878 36.1659L44.695 24.9932C45.0931 24.6228 45.3277 24.1095 45.3473 23.5661C45.3669 23.0227 45.1698 22.4938 44.7994 22.0957C44.429 21.6977 43.9156 21.463 43.3722 21.4435C42.8288 21.4239 42.2999 21.621 41.9019 21.9914L23.891 38.7504C23.6011 39.046 23.2284 39.2467 22.8221 39.326C22.4158 39.4054 21.995 39.3596 21.6152 39.1947C21.2355 39.0299 20.9147 38.7537 20.6952 38.4027C20.4757 38.0516 20.3679 37.6423 20.3859 37.2287L20.3876 37.1823C20.4335 35.9075 20.4782 34.6673 20.1137 33.427C19.2145 30.3599 15.6306 25.1479 11.8957 27.5926C11.976 28.5036 12.0736 29.421 12.1709 30.3442C12.4509 32.9625 12.7326 35.6128 12.5864 38.2244L13.3337 46.0766C13.0834 50.5326 22.9194 50.2837 21.6152 54.5161C21.1128 56.143 26.4793 57.0923 27.6412 58.3411L32.0355 61.8307C32.4252 62.248 18.0447 48.7446 26.9433 58.5156C28.3528 59.0131 31.9993 63.4017 33.3992 62.8776L35.4809 64.0087C39.0324 62.6755 36.1033 66.593 38.8804 64.0087L56.9513 47.1939C57.3494 46.8235 57.584 46.3101 57.6036 45.7667C57.6231 45.2233 57.426 44.6944 57.0556 44.2964C56.6852 43.8983 56.1719 43.6637 55.6285 43.6441C55.0851 43.6245 54.5562 43.8216 54.1582 44.192L43.6518 53.9681C43.2537 54.3385 42.7248 54.5356 42.1815 54.5161C41.6381 54.4965 41.1247 54.2619 40.7543 53.8638C40.3839 53.4657 40.1868 52.9368 40.2064 52.3934C40.2259 51.8501 40.4606 51.3367 40.8586 50.9663L55.8677 37.0005C56.2658 36.6301 56.5004 36.1167 56.52 35.5733C56.5395 35.03 56.3424 34.5011 55.972 34.103C55.6016 33.7049 55.0883 33.4703 54.5449 33.4507C54.0015 33.4312 53.4726 33.6283 53.0745 33.9987Z" fill="#F4EEE3"/>
<path d="M13.3337 46.0766C13.104 50.1997 20.9956 48.8351 19.7896 52.7577C19.3313 54.2451 23.5432 54.0323 23.891 55.5494C24.2387 57.0665 25.534 55.9804 26.5944 57.1197L28.6881 59.5625C29.5271 60.4613 29.5796 60.3737 30.7387 60.7838C33.0606 61.6095 33.1735 64.4406 35.4809 63.5755L35.4809 64.448C39.5326 62.9264 37.5859 68.9665 40.7543 66.0183L59.7445 50.1957C60.4654 49.5256 61.0149 48.6923 61.347 47.7657C61.679 46.8392 61.7839 45.8465 61.6527 44.8711C61.5216 43.8956 61.1582 42.9659 60.5932 42.16C60.0282 41.3541 59.278 40.6956 58.4057 40.2397L58.6609 40.0023C59.3961 39.3188 59.9528 38.4658 60.2824 37.5176C60.6121 36.5695 60.7047 35.5551 60.5521 34.5629C60.3996 33.5708 60.0065 32.6311 59.4072 31.8258C58.8079 31.0205 58.0206 30.3741 57.114 29.9431C57.8245 28.7965 58.1384 27.4482 58.0074 26.1057C57.8763 24.7633 57.3075 23.5011 56.3887 22.5136C55.4698 21.5261 54.2519 20.8681 52.9223 20.6408C51.5927 20.4135 50.2253 20.6296 49.0306 21.2558C48.6659 20.3206 48.0778 19.4889 47.3177 18.8332C46.5576 18.1776 45.6486 17.7179 44.67 17.4944C43.6914 17.2709 42.6729 17.2903 41.7035 17.5509C40.7342 17.8115 39.8433 18.3055 39.1087 18.9896L24.2047 32.8577L24.0489 32.2689C22.9427 28.5039 20.7472 25.5845 17.2868 23.7076C14.7393 22.2639 10.7777 22.9481 8.5143 25.0541C8.2395 25.3101 8.02663 25.6254 7.89185 25.9759C7.75708 26.3265 7.70393 26.7031 7.73645 27.0773C7.81947 28.0754 7.93683 29.0864 8.04819 30.1029C8.34236 32.7304 8.63848 35.3841 8.49223 37.9958L13.3337 46.0766ZM13.3337 46.0766L12.5864 38.2244C12.7326 35.6128 12.4509 32.9625 12.1709 30.3442C12.0736 29.421 11.976 28.5036 11.8957 27.5926C15.6306 25.1479 19.2145 30.3599 20.1137 33.427C20.4782 34.6673 20.4335 35.9075 20.3876 37.1823L20.3859 37.2287C20.3679 37.6423 20.4757 38.0516 20.6952 38.4027C20.9147 38.7537 21.2355 39.0299 21.6152 39.1947C21.995 39.3596 22.4158 39.4054 22.8221 39.326C23.2284 39.2467 23.6011 39.046 23.891 38.7504L41.9019 21.9914C42.2999 21.621 42.8288 21.4239 43.3722 21.4435C43.9156 21.463 44.429 21.6977 44.7994 22.0957C45.1698 22.4938 45.3669 23.0227 45.3473 23.5661C45.3277 24.1095 45.0931 24.6228 44.695 24.9932L32.6878 36.1659C32.2897 36.5363 32.0551 37.0496 32.0355 37.593C32.016 38.1364 32.2131 38.6653 32.5835 39.0634C32.9539 39.4614 33.4672 39.6961 34.0106 39.7156C34.554 39.7352 35.0829 39.5381 35.4809 39.1677L50.49 25.2019C50.8881 24.8315 51.417 24.6344 51.9604 24.6539C52.5038 24.6735 53.0171 24.9081 53.3875 25.3062C53.7579 25.7043 53.955 26.2332 53.9354 26.7765C53.9159 27.3199 53.6813 27.8333 53.2832 28.2037L38.2741 42.1695C37.8761 42.5399 37.6414 43.0533 37.6219 43.5967C37.6023 44.14 37.7994 44.6689 38.1698 45.067C38.5402 45.4651 39.0535 45.6997 39.5969 45.7193C40.1403 45.7388 40.6692 45.5417 41.0673 45.1713L53.0745 33.9987C53.4726 33.6283 54.0015 33.4312 54.5449 33.4507C55.0883 33.4703 55.6016 33.7049 55.972 34.103C56.3424 34.5011 56.5395 35.03 56.52 35.5733C56.5004 36.1167 56.2658 36.6301 55.8677 37.0005L40.8586 50.9663C40.4606 51.3367 40.2259 51.8501 40.2064 52.3934C40.1868 52.9368 40.3839 53.4657 40.7543 53.8638C41.1247 54.2619 41.6381 54.4965 42.1815 54.5161C42.7248 54.5356 43.2537 54.3385 43.6518 53.9681L54.1582 44.192C54.5562 43.8216 55.0851 43.6245 55.6285 43.6441C56.1719 43.6637 56.6852 43.8983 57.0556 44.2964C57.426 44.6944 57.6231 45.2233 57.6036 45.7667C57.584 46.3101 57.3494 46.8235 56.9513 47.1939L38.8804 64.0087C36.1033 66.593 39.0324 62.6755 35.4809 64.0087L33.3992 62.8776C31.9993 63.4017 28.3528 59.0131 26.9433 58.5156C18.0447 48.7446 32.4252 62.248 32.0355 61.8307L27.6412 58.3411C26.4793 57.0923 21.1128 56.143 21.6152 54.5161C22.9194 50.2837 13.0834 50.5326 13.3337 46.0766Z" stroke="#442E24" stroke-width="3"/>
<path d="M39.9176 12.1696L40.3469 12.8884L40.7761 12.1696C44.3101 6.25151 50.7972 2.6616 58.3586 2.6615C63.7654 2.6681 68.9489 4.81888 72.7722 8.64212C76.5955 12.4654 78.7463 17.6491 78.7528 23.056C78.7525 33.1377 72.4012 43.7746 59.6918 54.6605C53.8294 59.6492 47.4996 64.061 40.7904 67.8346C40.6539 67.9076 40.5016 67.9457 40.3469 67.9457C40.1921 67.9457 40.0397 67.9075 39.9033 67.8346C33.1942 64.061 26.8645 59.6493 21.0022 54.6607C8.29251 43.7747 1.94105 33.1376 1.94092 23.0557C1.94751 17.6489 4.0983 12.4654 7.92153 8.64212C11.7448 4.81888 16.9283 2.6681 22.3351 2.6615C29.8965 2.6616 36.3836 6.25151 39.9176 12.1696ZM40.0997 65.7895L40.3469 65.93L40.594 65.7895C43.1292 64.348 52.1713 58.9756 60.5862 51.3352C68.9741 43.7193 76.8709 33.7323 76.8709 23.0554V23.0548C76.865 18.1471 74.9128 13.4421 71.4425 9.97178C67.9722 6.5015 63.2672 4.5493 58.3595 4.54343H58.3589C50.5707 4.54343 43.9851 8.72297 41.2172 15.4841C41.1463 15.6567 41.0257 15.8043 40.8708 15.9082C40.7158 16.0121 40.5334 16.0676 40.3469 16.0676C40.1603 16.0676 39.9779 16.0121 39.8229 15.9082C39.668 15.8043 39.5474 15.6567 39.4765 15.4841C36.7086 8.72296 30.123 4.54343 22.3348 4.54343L22.3342 4.54343C17.4265 4.5493 12.7215 6.5015 9.2512 9.97178C5.78091 13.4421 3.82872 18.1471 3.82284 23.0548V23.0554C3.82284 33.7448 11.7195 43.7319 20.1076 51.3447C28.5225 58.982 37.5647 64.3481 40.0997 65.7895Z" fill="#F4EEE3" stroke="#442E24"/>
</svg>
