<svg width="38" height="22" viewBox="0 0 38 22" fill="none" xmlns="http://www.w3.org/2000/svg">
<g style="mix-blend-mode:multiply">
<path d="M2.08333 22H35.4167C36.5625 22 37.5 21.175 37.5 20.1667C37.5 19.1583 36.5625 18.3333 35.4167 18.3333H2.08333C0.9375 18.3333 0 19.1583 0 20.1667C0 21.175 0.9375 22 2.08333 22ZM2.08333 12.8333H35.4167C36.5625 12.8333 37.5 12.0083 37.5 11C37.5 9.99167 36.5625 9.16667 35.4167 9.16667H2.08333C0.9375 9.16667 0 9.99167 0 11C0 12.0083 0.9375 12.8333 2.08333 12.8333ZM0 1.83333C0 2.84167 0.9375 3.66667 2.08333 3.66667H35.4167C36.5625 3.66667 37.5 2.84167 37.5 1.83333C37.5 0.825 36.5625 0 35.4167 0H2.08333C0.9375 0 0 0.825 0 1.83333Z" fill="#946A57"/>
</g>
</svg>
