<svg width="47" height="48" viewBox="0 0 47 48" fill="none" xmlns="http://www.w3.org/2000/svg">
<path d="M23.5 18.285C22.3933 18.2854 21.3116 18.621 20.3916 19.2492C19.4717 19.8774 18.7547 20.7701 18.3315 21.8144C17.9083 22.8588 17.7978 24.0078 18.0139 25.1163C18.2301 26.2247 18.7632 27.2428 19.5459 28.0419C20.3286 28.8409 21.3257 29.385 22.4112 29.6053C23.4966 29.8257 24.6217 29.7124 25.6441 29.2798C26.6665 28.8472 27.5403 28.1146 28.1551 27.1749C28.7699 26.2351 29.098 25.1302 29.098 24C29.0969 22.4843 28.5067 21.031 27.4571 19.9594C26.4074 18.8878 24.9842 18.2856 23.5 18.285ZM36.5834 13.8921C36.2985 13.1548 35.8684 12.4852 35.3195 11.9247C34.7707 11.3642 34.115 10.9249 33.3931 10.6339C31.19 9.74571 25.9444 9.945 23.5 9.945C21.0556 9.945 15.8153 9.73821 13.6059 10.6339C12.8839 10.9249 12.2282 11.3642 11.6794 11.9247C11.1306 12.4852 10.7004 13.1548 10.4155 13.8921C9.54688 16.1421 9.74096 21.5046 9.74096 23.9989C9.74096 26.4932 9.54687 31.8493 10.4197 34.1068C10.7046 34.8441 11.1348 35.5138 11.6836 36.0742C12.2324 36.6347 12.8881 37.0741 13.6101 37.365C15.8132 38.2532 21.0587 38.0539 23.5042 38.0539C25.9497 38.0539 31.1879 38.2607 33.3973 37.365C34.1192 37.0741 34.7749 36.6347 35.3237 36.0742C35.8725 35.5138 36.3027 34.8441 36.5876 34.1068C37.4636 31.8568 37.2622 26.4943 37.2622 24C37.2622 21.5057 37.4636 16.1507 36.5876 13.8932L36.5834 13.8921ZM23.5 32.7857C21.7986 32.7857 20.1353 32.2704 18.7206 31.3051C17.3059 30.3397 16.2033 28.9675 15.5522 27.3621C14.901 25.7568 14.7307 23.9903 15.0626 22.286C15.3946 20.5817 16.2139 19.0163 17.417 17.7876C18.6201 16.5589 20.1529 15.7221 21.8217 15.3831C23.4905 15.0441 25.2202 15.2181 26.7921 15.8831C28.364 16.548 29.7076 17.6741 30.6529 19.1189C31.5981 20.5637 32.1027 22.2624 32.1027 24C32.1041 25.1542 31.8825 26.2972 31.4506 27.3638C31.0188 28.4304 30.3852 29.3995 29.5861 30.2156C28.787 31.0317 27.8381 31.6788 26.7937 32.1198C25.7494 32.5608 24.6301 32.7871 23.5 32.7857ZM32.4573 16.8964C32.0601 16.8966 31.6718 16.7765 31.3414 16.5513C31.0111 16.3261 30.7535 16.0059 30.6014 15.6312C30.4492 15.2565 30.4093 14.8442 30.4867 14.4463C30.5641 14.0484 30.7552 13.6829 31.036 13.396C31.3168 13.1091 31.6746 12.9137 32.0641 12.8345C32.4536 12.7553 32.8574 12.7958 33.2244 12.951C33.5914 13.1062 33.9051 13.369 34.1257 13.7063C34.3464 14.0436 34.4642 14.4401 34.4642 14.8457C34.4653 15.1151 34.4143 15.382 34.3142 15.6312C34.2141 15.8804 34.0667 16.107 33.8807 16.2979C33.6946 16.4888 33.4735 16.6404 33.2299 16.7438C32.9864 16.8473 32.7252 16.9006 32.4615 16.9007L32.4573 16.8964ZM41.9643 0H5.03571C3.70016 0 2.41931 0.541835 1.47493 1.50631C0.530547 2.47078 0 3.77889 0 5.14286L0 42.8571C0 44.2211 0.530547 45.5292 1.47493 46.4937C2.41931 47.4582 3.70016 48 5.03571 48H41.9643C43.2998 48 44.5807 47.4582 45.5251 46.4937C46.4695 45.5292 47 44.2211 47 42.8571V5.14286C47 3.77889 46.4695 2.47078 45.5251 1.50631C44.5807 0.541835 43.2998 0 41.9643 0ZM40.1682 31.0714C40.0329 33.8175 39.4192 36.2507 37.4563 38.25C35.4934 40.2493 33.113 40.8889 30.4273 41.0196C27.6566 41.1793 19.3497 41.1793 16.579 41.0196C13.8902 40.8814 11.516 40.2536 9.55002 38.25C7.584 36.2464 6.96607 33.8121 6.83808 31.0714C6.68176 28.2407 6.68176 19.7561 6.83808 16.9286C6.97342 14.1825 7.5798 11.7493 9.55002 9.75C11.5202 7.75071 13.9007 7.11857 16.579 6.98786C19.3497 6.82821 27.6566 6.82821 30.4273 6.98786C33.1161 7.12607 35.4976 7.75393 37.4563 9.7575C39.415 11.7611 40.0402 14.1954 40.1682 16.9414C40.3245 19.7614 40.3245 28.2386 40.1682 31.0714Z" fill="white"/>
</svg>
