<svg width="207" height="56" viewBox="0 0 207 56" fill="none" xmlns="http://www.w3.org/2000/svg">
<rect x="8.44556" y="0.5" width="188" height="54.7346" stroke="#CF7C29"/>
<path d="M6.51592 40.6404C5.17399 40.6274 4.07619 40.3417 3.22252 39.7834C2.39086 39.2253 1.78073 38.4714 1.39213 37.5216C1.00337 36.5937 0.813455 35.5579 0.82239 34.4139C0.836136 32.6539 1.27938 30.8322 2.15211 28.9485C2.80074 27.5908 3.65749 26.345 4.72238 25.2113C5.78743 24.0556 6.9826 23.1431 8.30786 22.4739C9.6333 21.7827 11.022 21.4442 12.4739 21.4583C13.5959 21.4692 14.4856 21.6318 15.1432 21.9462C15.8009 22.2386 16.2709 22.6281 16.5531 23.1149C16.8575 23.5799 17.0076 24.0763 17.0035 24.6043C16.9978 25.3303 16.7725 26.0102 16.3275 26.6439C15.8826 27.2776 15.3404 27.6793 14.7011 27.8492C14.6789 27.8709 14.6458 27.8816 14.6018 27.8812C14.5796 27.903 14.5356 27.9136 14.4696 27.9129C14.5136 27.9133 14.5576 27.9028 14.6018 27.8812C14.6238 27.8814 14.6348 27.8815 14.6348 27.8815L14.7011 27.8492C15.0101 27.7201 15.3097 27.382 15.6 26.8348C15.9123 26.2878 16.0709 25.6953 16.0759 25.0574C16.0814 24.3534 15.8224 23.7128 15.2989 23.1357C14.7754 22.5586 13.7987 22.2632 12.3687 22.2493C11.0928 22.2369 9.84719 22.5659 8.63192 23.2361C7.43865 23.9066 6.35365 24.7981 5.37693 25.9107C4.42221 27.0235 3.6428 28.226 3.03869 29.5182C2.2775 31.2049 1.89063 32.8512 1.87808 34.4571C1.86674 35.9091 2.2311 37.1447 2.97116 38.1639C3.71122 39.1831 4.89522 39.7006 6.52314 39.7164C7.4691 39.7256 8.45011 39.4711 9.46619 38.9529C10.5043 38.4349 11.5435 37.763 12.584 36.937C13.6467 36.0893 14.6769 35.1643 15.6748 34.1619C16.6946 33.1597 17.6482 32.1899 18.5356 31.2525C17.6989 31.3324 16.8951 31.4346 16.1241 31.5591C15.3753 31.6619 14.6482 31.7978 13.9429 31.967L13.8109 31.9657C13.5469 31.9632 13.4159 31.8299 13.418 31.5659C13.4189 31.4559 13.4637 31.3463 13.5526 31.2372C13.6416 31.106 13.7632 31.0302 13.9174 31.0097C15.5253 30.7613 17.276 30.5582 19.1693 30.4006C22.8104 26.1677 25.7184 22.8517 27.8932 20.4527C30.068 18.0537 31.7955 16.5854 33.0758 16.0478C33.5835 15.8327 34.0683 15.7274 34.5303 15.7319C35.0143 15.7366 35.255 15.8929 35.2526 16.2009C35.2502 16.5089 34.9497 16.957 34.3511 17.5452C33.5528 18.3515 32.7303 19.4326 31.8837 20.7884C31.0591 22.1445 30.2774 23.633 29.5388 25.2539C28.8222 26.853 28.2266 28.4753 27.7517 30.1208C28.0597 30.1238 28.3127 30.1262 28.5107 30.1281C28.7088 30.1081 28.8848 30.1098 29.0386 30.1333C29.2585 30.1574 29.4229 30.225 29.5321 30.3361C29.6412 30.4471 29.6953 30.5577 29.6945 30.6676C29.6924 30.9316 29.5264 31.062 29.1964 31.0588C28.9764 31.0567 28.7234 31.0543 28.4374 31.0515C28.1736 31.0269 27.8877 31.0131 27.5797 31.0102C27.1941 32.5025 26.9963 33.8756 26.9866 35.1296C26.9841 35.4376 26.9928 35.7347 27.0126 36.0209C27.0324 36.3071 27.0632 36.5824 27.1051 36.8468C27.211 37.3759 27.3394 37.8391 27.4903 38.2366C27.6632 38.6343 27.8926 38.8345 28.1786 38.8373C28.5086 38.8405 28.9291 38.5256 29.44 37.8925C29.6176 37.6962 29.7833 37.5988 29.9373 37.6003C30.0473 37.6014 30.135 37.6462 30.2003 37.7349C30.2654 37.8455 30.2533 37.9884 30.1639 38.1635C29.6722 39.1488 29.0194 39.6375 28.2054 39.6296C27.7655 39.6254 27.338 39.4232 26.9231 39.0232C26.5303 38.6233 26.2493 37.9826 26.0801 37.1009C25.9531 36.4616 25.8925 35.768 25.8984 35.02C25.9032 34.4041 25.9412 33.7664 26.0123 33.1071C26.1056 32.4259 26.2321 31.7231 26.3918 30.9986C25.4898 30.9899 24.4668 30.991 23.3227 31.0019C22.2007 30.991 21.0674 31.035 19.9226 31.1339C19.9002 31.1777 19.8558 31.2323 19.7893 31.2976C19.7229 31.341 19.6676 31.3845 19.6233 31.428C18.7356 32.4095 17.7484 33.445 16.6619 34.5345C15.5755 35.602 14.4457 36.6031 13.2723 37.5377C12.121 38.4726 10.9601 39.2204 9.78973 39.7811C8.64114 40.364 7.54987 40.6504 6.51592 40.6404ZM20.6885 30.2503C21.7669 30.1948 22.8232 30.161 23.8574 30.149C24.8917 30.1151 25.8159 30.091 26.63 30.0769C27.0385 28.4748 27.5899 26.8961 28.284 25.3407C28.9784 23.7634 29.7268 22.3076 30.5292 20.9733C31.3317 19.639 32.0882 18.5463 32.7989 17.6952C32.8656 17.6078 32.9656 17.4768 33.099 17.3021C33.2325 17.1053 33.3549 16.9305 33.4661 16.7776C33.5994 16.6029 33.644 16.5263 33.5999 16.5479C32.408 17.0423 30.7797 18.4786 28.7151 20.8567C26.6726 23.213 23.9971 26.3442 20.6885 30.2503ZM33.619 37.537C32.871 37.5298 32.2787 37.315 31.842 36.8928C31.4053 36.4705 31.1898 35.8854 31.1957 35.1374C31.1991 34.6974 31.2464 34.2689 31.3377 33.8517C31.4291 33.4126 31.5535 32.9848 31.7107 32.5683C31.8006 32.3271 31.9797 31.9329 32.248 31.3854C32.5384 30.8162 32.8731 30.2254 33.2519 29.6131C33.6308 28.9787 33.998 28.4433 34.3534 28.0067C34.7089 27.5701 35.0186 27.3531 35.2826 27.3557C35.3925 27.3567 35.5352 27.4021 35.7105 27.4918C35.908 27.5598 36.0061 27.6707 36.0049 27.8247C36.0042 27.9127 35.9594 28.0223 35.8703 28.1534C35.3599 28.7205 34.8265 29.4083 34.2702 30.217C33.714 31.0036 33.2455 31.8351 32.8647 32.7115C32.484 33.5658 32.2905 34.389 32.2844 35.181C32.2764 36.1929 32.7565 36.7036 33.7244 36.713C34.2964 36.7185 34.8369 36.5258 35.346 36.1347C35.8771 35.7438 36.3759 35.2536 36.8425 34.6641C37.3093 34.0526 37.732 33.4517 38.1106 32.8613C38.5113 32.2712 38.8561 31.7795 39.1452 31.3863C39.3004 31.2338 39.466 31.1584 39.642 31.1601C39.906 31.1627 40.0369 31.296 40.0349 31.5599C40.033 31.8019 39.8651 32.1743 39.5311 32.6771C39.2192 33.1801 38.83 33.7154 38.3635 34.2829C37.8971 34.8504 37.4421 35.363 36.9985 35.8207C36.5769 36.2786 36.2554 36.5945 36.0341 36.7684C35.702 37.0292 35.3155 37.2234 34.8745 37.3512C34.4555 37.4791 34.037 37.5411 33.619 37.537ZM36.0346 24.0298C35.8146 24.0277 35.628 23.9709 35.4749 23.8594C35.3219 23.7259 35.2465 23.5162 35.2488 23.2302C35.2508 22.9662 35.3516 22.7471 35.5509 22.5731C35.7505 22.377 35.9602 22.28 36.1802 22.2822C36.3782 22.2841 36.5425 22.3737 36.6731 22.5509C36.8039 22.7062 36.8686 22.8719 36.8672 23.0478C36.8655 23.2678 36.7868 23.4871 36.6311 23.7056C36.4754 23.9241 36.2765 24.0322 36.0346 24.0298ZM38.3444 24.0522C38.1245 24.0501 37.9379 23.9933 37.7848 23.8818C37.6318 23.7483 37.5564 23.5386 37.5587 23.2526C37.5607 22.9886 37.6614 22.7695 37.8608 22.5955C38.0603 22.3994 38.2701 22.3024 38.4901 22.3045C38.6881 22.3065 38.8524 22.3961 38.983 22.5733C39.1138 22.7286 39.1785 22.8942 39.1771 23.0702C39.1754 23.2902 39.0967 23.5095 38.941 23.728C38.7853 23.9465 38.5864 24.0546 38.3444 24.0522ZM41.7675 37.913C40.6236 37.9019 39.7686 37.5196 39.2024 36.7661C38.6363 36.0126 38.3568 35.1848 38.3638 34.2829C38.3683 33.7109 38.4606 33.1618 38.6407 32.6355C38.821 32.0872 39.056 31.5725 39.3458 31.0912C39.6135 30.6098 39.9697 30.0742 40.4143 29.4845C40.859 28.8948 41.3694 28.3277 41.9457 27.7833C42.5219 27.2389 43.1414 26.7938 43.8041 26.4483C44.4669 26.1027 45.1612 25.9334 45.8872 25.9404C46.5031 25.9464 46.9527 26.1378 47.2357 26.5145C47.5408 26.8915 47.6914 27.322 47.6877 27.806C47.6864 27.96 47.6406 28.2015 47.55 28.5307C47.4594 28.8598 47.3358 29.1996 47.179 29.5501C47.0443 29.9008 46.8769 30.2072 46.6768 30.4693C46.4769 30.7094 46.256 30.8282 46.014 30.8259C45.882 30.8246 45.7614 30.7794 45.6521 30.6904C45.5429 30.5793 45.4888 30.4688 45.4897 30.3588C45.4902 30.2928 45.5794 30.1396 45.7572 29.8993C45.9351 29.6591 46.1134 29.3638 46.2922 29.0135C46.4709 28.6632 46.5618 28.2901 46.5649 27.8941C46.5668 27.6521 46.5025 27.4315 46.3721 27.2322C46.2636 27.0331 46.0444 26.932 45.7144 26.9288C45.1645 26.9235 44.6021 27.094 44.0274 27.4405C43.4749 27.7651 42.9545 28.1891 42.4664 28.7124C41.9785 29.2137 41.5455 29.7265 41.1674 30.2509C40.7894 30.7532 40.5 31.1904 40.2991 31.5625C40.076 31.9564 39.8968 32.3726 39.7613 32.8113C39.6481 33.2283 39.5897 33.6567 39.5863 34.0967C39.5829 34.5367 39.6454 34.9773 39.774 35.4186C39.9025 35.8599 40.1307 36.2251 40.4584 36.5143C40.7862 36.8035 41.247 36.9509 41.841 36.9567C42.501 36.9631 43.1402 36.8043 43.7588 36.4803C44.3773 36.1563 44.8972 35.7873 45.3185 35.3733C45.7617 34.9596 46.1166 34.589 46.3832 34.2616C46.6718 33.9344 46.9607 33.5632 47.2499 33.148C47.5613 32.711 47.9508 32.1427 48.4183 31.4432C48.5075 31.2901 48.6401 31.2144 48.8161 31.2161C49.124 31.2191 49.2767 31.3855 49.2742 31.7155C49.2733 31.8255 49.2506 31.9133 49.2061 31.9789C48.6047 32.9191 47.9375 33.8477 47.2043 34.7646C46.4931 35.6817 45.6841 36.4439 44.7774 37.0512C43.8928 37.6366 42.8895 37.9239 41.7675 37.913ZM55.1425 37.9437C54.5925 37.9384 54.1097 37.7797 53.6942 37.4676C53.3006 37.1558 53.1062 36.6919 53.111 36.0759C53.1177 35.218 53.3557 34.3182 53.8251 33.3767C54.2945 32.4352 54.8626 31.5277 55.5294 30.6541C56.1964 29.7586 56.8186 28.9726 57.3959 28.2961C57.7508 27.9255 57.9293 27.6083 57.9313 27.3443C57.9329 27.1463 57.8348 27.0353 57.6369 27.0114C57.5711 26.9888 57.4832 26.9769 57.3732 26.9758C56.8892 26.9711 56.4039 27.1424 55.9172 27.4897C55.4304 27.837 55.0321 28.1302 54.7223 28.3692C53.7041 29.1514 52.7179 30.0658 51.7637 31.1126C50.8095 32.1594 50.021 33.1198 49.3982 33.9938C49.1756 34.3217 48.9854 34.7269 48.8277 35.2094C48.6701 35.6699 48.5236 36.1085 48.3884 36.5252C48.2751 36.9421 48.1408 37.2378 47.9854 37.4123C47.7634 37.6742 47.5204 37.8038 47.2564 37.8012C47.0584 37.7993 46.8939 37.7317 46.7629 37.5984C46.6321 37.4432 46.5676 37.2555 46.5693 37.0355C46.5704 36.9035 46.5821 36.8047 46.6046 36.7389C46.8767 35.7075 47.2265 34.5778 47.6541 33.3499C48.1039 32.1002 48.5755 30.8727 49.0689 29.6674C49.5845 28.4404 50.0771 27.3451 50.5467 26.3816C50.8821 25.6808 51.2733 24.8926 51.7202 24.0169C52.1892 23.1194 52.7131 22.2334 53.292 21.359C53.893 20.4628 54.5482 19.6661 55.2577 18.969C55.9892 18.272 56.7852 17.7627 57.6457 17.441C57.9767 17.3123 58.3072 17.2495 58.6372 17.2527C59.0772 17.2569 59.4503 17.3705 59.7566 17.5935C60.0848 17.8167 60.247 18.1813 60.243 18.6873C60.2393 19.1713 60.0589 19.7305 59.7019 20.3651C59.3451 20.9777 58.9002 21.6004 58.3673 22.2333C57.8343 22.8661 57.2907 23.4549 56.7364 23.9995C56.1822 24.5442 55.6947 24.9905 55.2739 25.3384C54.2998 26.121 53.3701 26.849 52.4848 27.5225C51.6215 28.1961 50.8901 28.8931 50.2904 29.6133C49.8858 30.7094 49.6037 31.6197 49.4441 32.3442C50.0666 31.5142 50.8211 30.6745 51.7078 29.825C52.5946 28.9536 53.4253 28.2246 54.1999 27.6381C54.6205 27.3122 55.1403 26.9542 55.7594 26.5642C56.3784 26.1742 56.996 25.9821 57.6119 25.9881C58.0519 25.9924 58.403 26.1058 58.6653 26.3283C58.9276 26.5509 59.0572 26.8492 59.0543 27.2231C59.0504 27.7291 58.7931 28.2767 58.2825 28.8657C57.7719 29.4548 57.2052 30.1754 56.5825 31.0274C55.9819 31.8796 55.4581 32.7435 55.0113 33.6192C54.5864 34.4952 54.3711 35.2961 54.3655 36.0221C54.3627 36.3741 54.4597 36.628 54.6565 36.7839C54.8533 36.9399 55.0837 37.0191 55.3477 37.0217C55.7437 37.0255 56.1077 36.897 56.4397 36.6362C56.993 36.2236 57.5028 35.7335 57.9693 35.166C58.4577 34.5987 58.9022 34.031 59.3026 33.4628C59.7031 32.8947 60.0479 32.403 60.3372 31.9878C60.5599 31.6379 60.8143 31.4644 61.1002 31.4672C61.3202 31.4693 61.4293 31.5914 61.4274 31.8334C61.4269 31.8994 61.4153 31.9763 61.3926 32.064C61.3699 32.1518 61.3251 32.2504 61.2583 32.3597C60.946 32.9067 60.5343 33.5078 60.0232 34.1629C59.534 34.8181 59.0341 35.4403 58.5235 36.0294C58.0131 36.5965 57.5478 37.021 57.1275 37.3029C56.5521 37.7374 55.8904 37.951 55.1425 37.9437ZM58.0687 18.2042C57.3847 18.4616 56.7101 18.917 56.045 19.5706C55.4019 20.2244 54.7687 21.0103 54.1455 21.9283C53.5444 22.8465 52.9757 23.8201 52.4397 24.8489C51.9038 25.8558 51.423 26.8521 50.9973 27.8381C51.7284 27.1851 52.3818 26.6304 52.9573 26.174C53.5549 25.7178 54.1417 25.2394 54.7176 24.739C55.227 24.3039 55.7702 23.7702 56.3472 23.1377C56.9463 22.4835 57.4906 21.8067 57.9801 21.1075C58.4915 20.4084 58.8486 19.7628 59.0512 19.1708C59.0961 19.0612 59.1298 18.9625 59.1525 18.8747C59.1754 18.7649 59.1871 18.677 59.1876 18.6111C59.1903 18.2591 59.0157 18.0814 58.6637 18.0779C58.5757 18.0771 58.4767 18.0871 58.3665 18.1081C58.2783 18.1292 58.1791 18.1613 58.0687 18.2042ZM61.0868 37.9023C60.3609 37.8953 59.8564 37.7034 59.5733 37.3266C59.3124 36.9281 59.1841 36.4538 59.1884 35.9038C59.1925 35.3759 59.2848 34.8267 59.4653 34.2564C59.6457 33.6862 59.8368 33.16 60.0386 32.6779C60.2626 32.1741 60.4415 31.8018 60.5754 31.5611C60.9767 30.883 61.4218 30.2272 61.9108 29.5939C62.4217 28.9609 62.9651 28.4051 63.5408 27.9267C64.1168 27.4262 64.7027 27.0469 65.2988 26.7887C65.917 26.5087 66.5341 26.3716 67.15 26.3776C68.206 26.3878 68.9517 26.6811 69.3872 27.2573C69.8229 27.8116 70.0383 28.4077 70.0333 29.0457C70.0316 29.2657 69.9968 29.4963 69.9289 29.7377C69.8383 30.0668 69.7261 30.3518 69.5922 30.5925C69.4803 30.8334 69.3364 30.953 69.1604 30.9513C69.0064 30.9498 68.864 30.8714 68.7332 30.7161C68.6024 30.5609 68.5596 30.4064 68.6048 30.2529C68.65 30.0993 68.7062 29.9458 68.7734 29.7925C68.8626 29.6394 68.9188 29.4859 68.942 29.3321C68.9649 29.2223 68.9766 29.1234 68.9773 29.0354C69 28.9477 69.0117 28.8598 69.0124 28.7718C69.017 28.1778 68.8222 27.7689 68.428 27.545C68.0559 27.2994 67.6498 27.1745 67.2098 27.1702C66.7039 27.1653 66.1748 27.3032 65.6226 27.5838C65.0924 27.8647 64.6278 28.1902 64.2289 28.5604C63.7411 29.0397 63.2528 29.596 62.7638 30.2292C62.2749 30.8625 61.8518 31.5075 61.4947 32.164C61.4498 32.2736 61.3268 32.5364 61.1255 32.9525C60.9463 33.3688 60.7666 33.84 60.5864 34.3663C60.4285 34.8708 60.3478 35.3431 60.3444 35.783C60.342 36.091 60.4059 36.3557 60.5362 36.5769C60.6885 36.7984 60.9406 36.9109 61.2926 36.9143C61.6666 36.9179 62.0969 36.7461 62.5836 36.3988C63.0924 36.0517 63.6017 35.6276 64.1116 35.1265C64.6437 34.6037 65.1206 34.1023 65.5424 33.6223C65.9642 33.1424 66.2751 32.7714 66.4751 32.5093C66.6085 32.3346 66.7309 32.1488 66.8425 31.9519C66.9762 31.7332 67.1097 31.5364 67.2431 31.3617C67.3098 31.2744 67.4421 31.2317 67.6401 31.2336C67.8161 31.2353 67.9917 31.292 68.1668 31.4037C68.3641 31.4936 68.4401 31.6263 68.3947 31.8019C68.3055 31.9551 68.1378 32.2944 67.8917 32.8201C67.6678 33.3239 67.4544 33.8829 67.2516 34.497C67.049 35.089 66.9459 35.616 66.9423 36.078C66.9378 36.65 67.1112 36.9817 67.4625 37.0731C67.7042 37.1195 67.9578 37.0339 68.2235 36.8165C68.5112 36.5993 68.7662 36.3487 68.9884 36.0649C69.2326 35.7812 69.4103 35.5739 69.5213 35.443C69.9881 34.8315 70.422 34.2087 70.8229 33.5745C71.2461 32.9186 71.6689 32.3067 72.0913 31.7388C72.2247 31.564 72.3794 31.4775 72.5553 31.4792C72.8633 31.4822 73.016 31.6487 73.0135 31.9787C73.0126 32.0887 72.8674 32.3733 72.5778 32.8325C72.2884 33.2697 71.9324 33.7723 71.51 34.3402C71.1095 34.9084 70.7315 35.4217 70.3759 35.8803C70.0203 36.3389 69.6208 36.786 69.1774 37.2217C68.734 37.6575 68.1713 37.872 67.4893 37.8654C66.8513 37.8592 66.4125 37.712 66.1727 37.4236C65.955 37.1355 65.8475 36.8154 65.8502 36.4635C65.8526 36.1555 65.8881 35.8368 65.9567 35.5074C66.0254 35.1561 66.0938 34.8597 66.1616 34.6184L66.0304 34.5181C65.8305 34.7582 65.5311 35.0633 65.1322 35.4334C64.7333 35.8036 64.2904 36.1843 63.8033 36.5756C63.3164 36.9449 62.8299 37.2592 62.3439 37.5185C61.8798 37.778 61.4608 37.906 61.0868 37.9023ZM86.2953 40.4569C85.3934 40.4481 84.4592 40.34 83.4928 40.1327C82.5482 39.9475 81.6596 39.6419 80.8269 39.2158C80.016 38.8119 79.3601 38.2885 78.8591 37.6456C78.3583 36.9807 78.1116 36.1753 78.1189 35.2293C78.1243 34.5474 78.2835 33.8779 78.5966 33.2209C79.4472 31.3591 80.6909 29.864 82.3278 28.7359C83.9866 27.6079 85.8852 26.7683 88.0236 26.217C87.2363 25.6153 86.8458 24.9075 86.8522 24.0935C86.8554 23.6755 86.9356 23.2693 87.0927 22.8748C87.2718 22.4805 87.4727 22.1084 87.6954 21.7586C88.2296 20.9717 88.9391 20.2746 89.8238 19.6671C90.7086 19.0597 91.6916 18.5522 92.7728 18.1446C93.854 17.7371 94.9565 17.4288 96.0801 17.2197C97.2258 17.0108 98.3046 16.9112 99.3165 16.921C99.9105 16.9268 100.515 16.9987 101.13 17.1366C101.767 17.2528 102.293 17.4779 102.709 17.812C103.124 18.146 103.329 18.643 103.324 19.303C103.319 19.897 103.062 20.4775 102.551 21.0446C102.063 21.5899 101.445 21.8589 100.697 21.8516C100.521 21.8499 100.323 21.815 100.104 21.7469C99.9066 21.657 99.8087 21.513 99.8102 21.315C99.8111 21.205 99.856 21.0955 99.9448 20.9863C100.056 20.8774 100.188 20.8237 100.342 20.8252C100.452 20.8262 100.54 20.8491 100.606 20.8937C100.693 20.9386 100.781 20.9614 100.869 20.9623C101.309 20.9665 101.652 20.7719 101.897 20.3782C102.142 19.9626 102.266 19.6118 102.268 19.3258C102.271 18.8858 102.131 18.5654 101.846 18.3646C101.562 18.1419 101.211 17.9955 100.794 17.9254C100.398 17.8556 100.003 17.8187 99.6066 17.8149C98.6606 17.8057 97.6589 17.895 96.6014 18.0828C95.5439 18.2705 94.4967 18.5464 93.4598 18.9103C92.445 19.2745 91.5173 19.7385 90.6769 20.3024C89.8365 20.8663 89.1603 21.5198 88.6485 22.2628C88.4703 22.5471 88.314 22.8426 88.1796 23.1493C88.0452 23.4561 87.9767 23.7744 87.9741 24.1044C87.9708 24.5224 88.089 24.8865 88.3286 25.1969C88.5902 25.5074 88.9292 25.7637 89.3456 25.9658C90.1828 25.8199 91.0086 25.7179 91.8231 25.6598C92.6596 25.6019 93.4958 25.577 94.3317 25.5851C94.5077 25.5868 94.7825 25.6225 95.1559 25.6921C95.5296 25.7397 95.7153 25.8955 95.7133 26.1595C95.7116 26.3795 95.578 26.5762 95.3127 26.7497C95.0473 26.9231 94.7492 27.0632 94.4184 27.17C94.0875 27.2768 93.812 27.3401 93.5918 27.36C93.0414 27.4207 92.4911 27.4483 91.9412 27.443C91.5012 27.4387 91.0505 27.4014 90.589 27.3309C90.1495 27.2606 89.7214 27.1465 89.3046 26.9884C89.1725 27.0091 89.0403 27.0299 88.9081 27.0506C88.798 27.0715 88.6767 27.1033 88.5444 27.1461C86.5387 27.6106 84.7398 28.3522 83.1478 29.3708C81.5558 30.3895 80.368 31.775 79.5843 33.5275C79.338 34.0751 79.2127 34.6239 79.2084 35.1739C79.2022 35.9659 79.417 36.639 79.8527 37.1932C80.3103 37.7477 80.8899 38.1933 81.5913 38.5302C82.2926 38.867 83.0608 39.1054 83.8957 39.2455C84.7305 39.4076 85.5219 39.4923 86.2698 39.4996L86.6658 39.5034C88.7777 39.5239 90.8264 39.1917 92.8118 38.5069C94.8192 37.8224 96.6196 36.8718 98.2132 35.6552C98.5674 35.3726 98.9219 35.057 99.2766 34.7085C99.6533 34.3601 99.9531 34.011 100.176 33.6611C100.354 33.3988 100.488 33.1251 100.578 32.84C100.691 32.5331 100.748 32.2366 100.75 31.9506C100.754 31.4886 100.646 31.1686 100.428 30.9904C100.231 30.7905 100.001 30.6673 99.7376 30.6207C99.4739 30.5742 99.2323 30.5278 99.0126 30.4817C98.815 30.4358 98.717 30.3028 98.7187 30.0828C98.7199 29.9288 98.7759 29.8084 98.8866 29.7214C98.9972 29.6345 99.1296 29.5918 99.2836 29.5933C100.076 29.601 100.701 29.838 101.159 30.3045C101.64 30.7492 101.877 31.3015 101.872 31.9615C101.869 32.3355 101.8 32.7088 101.665 33.0815C101.53 33.4543 101.363 33.8046 101.162 34.1327C100.873 34.5699 100.495 35.0063 100.03 35.4418C99.5647 35.8553 99.1108 36.2249 98.6682 36.5506C96.9865 37.7884 95.1199 38.7493 93.0685 39.4335C91.039 40.1398 88.9132 40.4822 86.6913 40.4607L86.2953 40.4569ZM104.581 38.5551C104.251 38.5519 103.976 38.4392 103.758 38.2171C103.562 37.9952 103.465 37.7192 103.468 37.3892C103.47 37.0592 103.571 36.7852 103.771 36.5671C103.993 36.3493 104.269 36.2419 104.599 36.2451C104.929 36.2483 105.203 36.361 105.421 36.5831C105.639 36.8052 105.747 37.0813 105.745 37.4113C105.742 37.7413 105.63 38.0152 105.408 38.2331C105.186 38.4509 104.911 38.5583 104.581 38.5551ZM119.309 41.338C118.979 41.3348 118.739 41.1674 118.587 40.836C118.436 40.5045 118.34 40.1405 118.299 39.7441C118.258 39.3477 118.238 39.0505 118.24 38.8525C118.245 38.2145 118.371 37.4787 118.62 36.6451C118.868 35.8115 119.183 34.9565 119.564 34.0801C119.967 33.204 120.369 32.3719 120.771 31.5837C121.196 30.7738 121.575 30.0734 121.91 29.4827C121.493 29.3026 121.066 29.1225 120.627 28.9422C120.211 28.7621 119.783 28.593 119.344 28.4347C119.081 28.3222 118.829 28.1657 118.589 27.9654C118.37 27.7653 118.262 27.5222 118.264 27.2362C118.267 26.9502 118.389 26.7424 118.632 26.6127C118.875 26.4611 119.162 26.3649 119.493 26.3241C119.845 26.2615 120.142 26.2314 120.384 26.2337C120.934 26.2391 121.473 26.2993 122 26.4144C122.549 26.5077 123.087 26.6229 123.614 26.7601C124.661 25.1421 125.862 23.5147 127.216 21.8778C128.571 20.2408 130.024 18.7918 131.574 17.5308C131.684 17.4219 131.817 17.3682 131.971 17.3697C132.103 17.3709 132.223 17.4271 132.333 17.5382C132.464 17.6274 132.529 17.7381 132.528 17.8701C132.527 17.9581 132.471 18.0565 132.361 18.1655C132.183 18.3398 131.995 18.5029 131.796 18.655C131.597 18.8071 131.408 18.9703 131.231 19.1446C130.943 19.4058 130.666 19.6671 130.4 19.9285C130.134 20.19 129.868 20.4514 129.602 20.7128C128.67 21.6718 127.804 22.6975 127.004 23.7898C126.225 24.8603 125.48 25.9421 124.767 27.0352C126.853 27.5395 128.917 28.0875 130.958 28.6793C133.022 29.2494 135.097 29.7535 137.184 30.1918C138.165 28.4852 139.257 26.7577 140.458 25.0093C141.682 23.2611 143.004 21.6568 144.423 20.1965C144.867 19.7388 145.31 19.2811 145.754 18.8234C146.198 18.3436 146.663 17.8971 147.15 17.4838C147.217 17.4405 147.283 17.3971 147.349 17.3538C147.416 17.3104 147.493 17.2891 147.581 17.29C147.735 17.2915 147.855 17.3477 147.943 17.4585C148.052 17.5476 148.106 17.6471 148.105 17.7571C148.105 17.8231 148.06 17.9217 147.971 18.0528C147.549 18.5107 147.106 18.9685 146.64 19.426C146.175 19.8615 145.72 20.3081 145.277 20.7658C143.923 22.2268 142.679 23.7878 141.544 25.4488C140.409 27.0879 139.362 28.7498 138.403 30.4346C138.842 30.5049 139.293 30.5972 139.754 30.7117C140.237 30.8044 140.699 30.8529 141.139 30.8571C141.381 30.8595 141.689 30.8075 142.064 30.7011C142.439 30.5947 142.627 30.3986 142.63 30.1126C142.631 29.9146 142.555 29.7598 142.402 29.6483C142.271 29.5371 142.129 29.4367 141.976 29.3472C141.822 29.2357 141.746 29.114 141.747 28.982C141.748 28.85 141.804 28.7405 141.915 28.6536C142.026 28.5446 142.147 28.4908 142.279 28.4921C142.631 28.4955 142.938 28.6965 143.199 29.095C143.481 29.4938 143.622 29.8252 143.62 30.0892C143.615 30.6832 143.326 31.1204 142.752 31.4008C142.199 31.6815 141.637 31.819 141.065 31.8135C140.537 31.8084 139.999 31.7591 139.449 31.6658C138.922 31.5507 138.406 31.4357 137.901 31.3208C137.343 32.3714 136.817 33.4444 136.325 34.5396C135.854 35.6131 135.461 36.7094 135.144 37.8283C135.362 38.0945 135.558 38.3714 135.732 38.6591C135.927 38.969 136.024 39.2889 136.021 39.6189C136.019 39.9269 135.907 40.2008 135.685 40.4407C135.463 40.7026 135.165 40.8317 134.791 40.8281C134.505 40.8253 134.285 40.7461 134.133 40.5907C133.98 40.4572 133.871 40.2801 133.807 40.0595C133.764 39.8831 133.722 39.6846 133.679 39.4642C133.637 39.2658 133.616 39.0676 133.618 38.8696C133.619 38.7156 133.631 38.5727 133.654 38.4409C133.7 38.2874 133.734 38.1337 133.757 37.9799C133.062 36.7851 132.114 35.6979 130.911 34.7182C129.731 33.7167 128.44 32.8241 127.038 32.0405C125.636 31.2349 124.267 30.5286 122.93 29.9216C122.639 30.4468 122.282 31.1033 121.858 31.8913C121.456 32.6794 121.053 33.5225 120.65 34.4207C120.269 35.297 119.944 36.1519 119.673 36.9853C119.425 37.7969 119.299 38.4887 119.294 39.0607C119.291 39.4567 119.344 39.7432 119.452 39.9203C119.561 40.1194 119.67 40.2634 119.779 40.3525C119.888 40.4636 119.942 40.5961 119.941 40.7501C119.94 40.9041 119.873 41.0354 119.74 41.1441C119.629 41.2751 119.485 41.3397 119.309 41.338ZM122.411 28.6625C122.523 28.4876 122.634 28.3126 122.745 28.1377C122.857 27.9408 122.979 27.7549 123.113 27.5802C122.674 27.466 122.213 27.3625 121.729 27.2698C121.246 27.1551 120.774 27.0955 120.312 27.0911C120.224 27.0902 120.058 27.1106 119.816 27.1523C119.574 27.1719 119.452 27.2367 119.452 27.3467C119.451 27.4347 119.505 27.5013 119.615 27.5463C119.725 27.5914 119.812 27.6362 119.878 27.6809C120.295 27.8609 120.711 28.03 121.128 28.188C121.567 28.3243 121.995 28.4824 122.411 28.6625ZM134.196 36.6311C134.556 35.6885 134.937 34.7572 135.34 33.8371C135.766 32.8951 136.224 31.9865 136.715 31.1113C134.606 30.6288 132.52 30.0916 130.457 29.4995C128.394 28.9075 126.319 28.3484 124.233 27.8221C123.921 28.2811 123.654 28.7185 123.431 29.1344C125.448 30.034 127.397 31.1089 129.28 32.3592C131.184 33.6098 132.823 35.0337 134.196 36.6311ZM143.841 38.7047C143.115 38.6977 142.61 38.5058 142.327 38.129C142.066 37.7305 141.938 37.2562 141.942 36.7062C141.946 36.1782 142.039 35.6291 142.219 35.0588C142.4 34.4885 142.591 33.9624 142.793 33.4803C143.016 32.9765 143.195 32.6042 143.329 32.3635C143.731 31.6853 144.176 31.0296 144.665 30.3963C145.176 29.7632 145.719 29.2075 146.295 28.729C146.871 28.2286 147.457 27.8493 148.053 27.591C148.671 27.311 149.288 27.174 149.904 27.18C150.96 27.1902 151.706 27.4834 152.141 28.0597C152.577 28.6139 152.792 29.2101 152.787 29.848C152.785 30.068 152.751 30.2987 152.683 30.5401C152.592 30.8692 152.48 31.1541 152.346 31.3948C152.234 31.6358 152.09 31.7554 151.914 31.7537C151.76 31.7522 151.618 31.6738 151.487 31.5185C151.356 31.3632 151.314 31.2088 151.359 31.0552C151.404 30.9017 151.46 30.7482 151.527 30.5949C151.617 30.4417 151.673 30.2883 151.696 30.1345C151.719 30.0247 151.731 29.9258 151.731 29.8378C151.754 29.75 151.766 29.6621 151.766 29.5741C151.771 28.9801 151.576 28.5712 151.182 28.3474C150.81 28.1018 150.404 27.9768 149.964 27.9726C149.458 27.9677 148.929 28.1056 148.376 28.3862C147.846 28.6671 147.382 28.9926 146.983 29.3627C146.495 29.842 146.007 30.3983 145.518 31.0316C145.029 31.6649 144.606 32.3098 144.249 32.9664C144.204 33.076 144.081 33.3388 143.879 33.7549C143.7 34.1711 143.52 34.6424 143.34 35.1687C143.182 35.6732 143.102 36.1454 143.098 36.5854C143.096 36.8934 143.16 37.158 143.29 37.3793C143.442 37.6008 143.695 37.7132 144.046 37.7167C144.42 37.7203 144.851 37.5484 145.338 37.2011C145.846 36.8541 146.356 36.43 146.866 35.9289C147.398 35.406 147.875 34.9046 148.296 34.4247C148.718 33.9448 149.029 33.5738 149.229 33.3117C149.362 33.137 149.485 32.9512 149.596 32.7542C149.73 32.5355 149.864 32.3388 149.997 32.1641C150.064 32.0767 150.196 32.034 150.394 32.0359C150.57 32.0376 150.746 32.0943 150.921 32.2061C151.118 32.296 151.194 32.4287 151.149 32.6043C151.059 32.7574 150.892 33.0968 150.646 33.6224C150.422 34.1263 150.208 34.6853 150.006 35.2993C149.803 35.8914 149.7 36.4184 149.696 36.8804C149.692 37.4524 149.865 37.7841 150.216 37.8755C150.458 37.9218 150.712 37.8363 150.977 37.6188C151.265 37.4016 151.52 37.1511 151.742 36.8672C151.987 36.5836 152.164 36.3763 152.275 36.2454C152.742 35.6339 153.176 35.011 153.577 34.3769C154 33.721 154.423 33.109 154.845 32.5411C154.979 32.3664 155.133 32.2799 155.309 32.2816C155.617 32.2846 155.77 32.4511 155.767 32.7811C155.767 32.8911 155.621 33.1757 155.332 33.6349C155.042 34.0721 154.686 34.5747 154.264 35.1426C153.863 35.7107 153.485 36.2241 153.13 36.6827C152.774 37.1412 152.375 37.5884 151.931 38.0241C151.488 38.4598 150.925 38.6744 150.243 38.6678C149.605 38.6616 149.166 38.5143 148.927 38.226C148.709 37.9379 148.601 37.6178 148.604 37.2658C148.607 36.9578 148.642 36.6392 148.711 36.3098C148.779 35.9585 148.848 35.6621 148.916 35.4208L148.784 35.3205C148.584 35.5606 148.285 35.8657 147.886 36.2358C147.487 36.606 147.044 36.9867 146.557 37.378C146.07 37.7473 145.584 38.0616 145.098 38.3209C144.634 38.5804 144.215 38.7083 143.841 38.7047ZM156.171 38.7252C155.423 38.718 154.831 38.5032 154.394 38.081C153.957 37.6587 153.742 37.0736 153.748 36.3256C153.751 35.8857 153.798 35.4571 153.89 35.04C153.981 34.6008 154.105 34.173 154.263 33.7565C154.352 33.5154 154.532 33.1211 154.8 32.5737C155.09 32.0045 155.425 31.4137 155.804 30.8013C156.183 30.167 156.55 29.6315 156.905 29.1949C157.261 28.7584 157.57 28.5414 157.834 28.5439C157.944 28.545 158.087 28.5904 158.262 28.6801C158.46 28.748 158.558 28.8589 158.557 29.0129C158.556 29.1009 158.511 29.2105 158.422 29.3417C157.912 29.9087 157.378 30.5966 156.822 31.4052C156.266 32.1919 155.797 33.0234 155.417 33.8997C155.036 34.7541 154.842 35.5772 154.836 36.3692C154.828 37.3812 155.308 37.8918 156.276 37.9012C156.848 37.9068 157.389 37.714 157.898 37.3229C158.429 36.9321 158.928 36.4419 159.394 35.8524C159.861 35.2409 160.284 34.6399 160.662 34.0496C161.063 33.4594 161.408 32.9678 161.697 32.5745C161.852 32.422 162.018 32.3466 162.194 32.3484C162.458 32.3509 162.589 32.4842 162.587 32.7482C162.585 32.9902 162.417 33.3626 162.083 33.8653C161.771 34.3683 161.382 34.9036 160.915 35.4711C160.449 36.0386 159.994 36.5512 159.55 37.0089C159.129 37.4669 158.807 37.7828 158.586 37.9566C158.254 38.2174 157.867 38.4117 157.426 38.5394C157.007 38.6674 156.589 38.7293 156.171 38.7252ZM158.586 25.2181C158.366 25.2159 158.18 25.1591 158.027 25.0476C157.874 24.9141 157.798 24.7044 157.801 24.4184C157.803 24.1544 157.903 23.9354 158.103 23.7613C158.302 23.5652 158.512 23.4683 158.732 23.4704C158.93 23.4723 159.094 23.5619 159.225 23.7392C159.356 23.8945 159.42 24.0601 159.419 24.2361C159.417 24.4561 159.339 24.6753 159.183 24.8938C159.027 25.1123 158.828 25.2204 158.586 25.2181ZM160.896 25.2405C160.676 25.2383 160.49 25.1815 160.337 25.07C160.184 24.9365 160.108 24.7268 160.111 24.4408C160.113 24.1768 160.213 23.9578 160.413 23.7837C160.612 23.5876 160.822 23.4907 161.042 23.4928C161.24 23.4947 161.404 23.5843 161.535 23.7616C161.666 23.9169 161.73 24.0825 161.729 24.2585C161.727 24.4785 161.649 24.6977 161.493 24.9162C161.337 25.1347 161.138 25.2428 160.896 25.2405ZM162.239 39.2461C161.513 39.2391 161.009 38.9922 160.727 38.5054C160.445 38.0187 160.306 37.5003 160.31 36.9503C160.315 36.3123 160.453 35.5876 160.723 34.7762C161.015 33.965 161.407 33.1438 161.897 32.3125C162.388 31.4812 162.955 30.7167 163.598 30.0189C164.242 29.3211 164.939 28.7558 165.691 28.3231C166.464 27.8906 167.247 27.6781 168.039 27.6858C168.523 27.6905 168.907 27.7822 169.192 27.961C169.498 28.14 169.782 28.3847 170.044 28.6953C170.512 27.9518 171.036 27.0548 171.616 26.0044C172.196 24.932 172.788 23.8597 173.39 22.7875C173.993 21.6933 174.539 20.7525 175.029 19.9652C175.252 19.5934 175.485 19.3426 175.728 19.213C175.971 19.0833 176.203 19.0196 176.423 19.0217C176.599 19.0234 176.741 19.0688 176.851 19.1579C176.96 19.2469 177.013 19.4344 177.011 19.7204C177.01 19.8744 176.864 20.203 176.574 20.7063C176.307 21.1877 175.95 21.7672 175.505 22.445C175.06 23.1227 174.581 23.8331 174.069 24.5761C173.557 25.3192 173.068 26.0295 172.6 26.707C172.155 27.3847 171.788 27.9532 171.498 28.4124C171.275 28.7622 170.974 29.2983 170.595 30.0207C170.215 30.721 169.824 31.4983 169.421 32.3524C169.019 33.2066 168.682 34.0393 168.412 34.8508C168.141 35.6622 168.004 36.3319 168 36.8598C167.998 37.1458 168.051 37.3884 168.159 37.5874C168.268 37.7865 168.432 37.8871 168.652 37.8892C168.894 37.8916 169.148 37.795 169.413 37.5996C169.679 37.4042 169.923 37.1865 170.144 36.9466C170.366 36.7068 170.522 36.5213 170.611 36.3901C170.7 36.281 170.911 35.997 171.244 35.5382C171.578 35.0795 171.934 34.5879 172.312 34.0635C172.712 33.5174 173.013 33.0913 173.213 32.7852C173.324 32.6103 173.479 32.5238 173.677 32.5257C173.963 32.5285 174.105 32.6948 174.102 33.0248C174.102 33.0688 174.057 33.1674 173.968 33.3205C173.879 33.4517 173.767 33.6266 173.634 33.8453C172.565 35.463 171.653 36.6973 170.899 37.548C170.144 38.3987 169.349 38.82 168.513 38.8119C168.447 38.8113 168.37 38.8105 168.282 38.8097C168.216 38.809 168.15 38.7974 168.084 38.7748C167.645 38.6825 167.339 38.4375 167.166 38.0398C167.015 37.6423 166.941 37.2346 166.944 36.8166C166.946 36.6186 166.959 36.4097 166.982 36.19C167.028 35.9484 167.097 35.63 167.188 35.2349C166.766 35.7368 166.299 36.2823 165.789 36.8714C165.278 37.4385 164.768 37.9396 164.259 38.3746C163.772 38.8099 163.341 39.0698 162.966 39.1541C162.745 39.218 162.503 39.2487 162.239 39.2461ZM162.379 38.2244C162.709 38.2276 163.095 38.0664 163.538 37.7406C164.003 37.3931 164.468 36.9576 164.934 36.4341C165.422 35.9108 165.878 35.3542 166.3 34.7643C166.745 34.1746 167.123 33.6392 167.435 33.1582C167.769 32.6554 168.003 32.2727 168.137 32.01L169.41 29.5472C169.236 29.3035 169.04 29.0926 168.821 28.9145C168.624 28.7365 168.35 28.6459 167.998 28.6425C167.316 28.6358 166.655 28.8384 166.013 29.2502C165.372 29.64 164.774 30.1623 164.219 30.8169C163.686 31.4498 163.219 32.1493 162.817 32.9154C162.415 33.6596 162.101 34.3935 161.875 35.1174C161.65 35.8192 161.535 36.4342 161.531 36.9621C161.529 37.2041 161.571 37.4795 161.657 37.7884C161.764 38.0754 162.005 38.2208 162.379 38.2244ZM173.713 38.9943C172.987 38.9873 172.483 38.7954 172.2 38.4186C171.939 38.0201 171.811 37.5458 171.815 36.9958C171.819 36.4679 171.911 35.9187 172.092 35.3485C172.272 34.7782 172.463 34.252 172.665 33.7699C172.889 33.2661 173.068 32.8938 173.202 32.6531C173.603 31.975 174.048 31.3192 174.537 30.686C175.048 30.0529 175.592 29.4971 176.167 29.0187C176.743 28.5182 177.329 28.1389 177.925 27.8807C178.544 27.6007 179.161 27.4636 179.777 27.4696C180.833 27.4798 181.578 27.7731 182.014 28.3493C182.449 28.9036 182.665 29.4997 182.66 30.1377C182.658 30.3577 182.623 30.5883 182.555 30.8297C182.465 31.1588 182.353 31.4438 182.219 31.6845C182.107 31.9254 181.963 32.045 181.787 32.0433C181.633 32.0418 181.491 31.9634 181.36 31.8081C181.229 31.6529 181.186 31.4985 181.231 31.3449C181.277 31.1913 181.333 31.0379 181.4 30.8845C181.489 30.7314 181.545 30.5779 181.569 30.4241C181.591 30.3143 181.603 30.2154 181.604 30.1274C181.627 30.0397 181.638 29.9518 181.639 29.8638C181.644 29.2698 181.449 28.8609 181.054 28.637C180.682 28.3914 180.276 28.2665 179.836 28.2622C179.33 28.2573 178.801 28.3952 178.249 28.6758C177.719 28.9567 177.254 29.2822 176.855 29.6524C176.368 30.1317 175.879 30.688 175.39 31.3213C174.901 31.9545 174.478 32.5995 174.121 33.256C174.076 33.3656 173.953 33.6284 173.752 34.0445C173.573 34.4608 173.393 34.9321 173.213 35.4583C173.055 35.9628 172.974 36.4351 172.971 36.875C172.969 37.183 173.032 37.4477 173.163 37.6689C173.315 37.8904 173.567 38.0029 173.919 38.0063C174.293 38.0099 174.723 37.8381 175.21 37.4908C175.719 37.1437 176.228 36.7196 176.738 36.2185C177.27 35.6957 177.747 35.1943 178.169 34.7143C178.591 34.2344 178.902 33.8634 179.102 33.6013C179.235 33.4266 179.357 33.2408 179.469 33.0439C179.603 32.8252 179.736 32.6284 179.87 32.4537C179.936 32.3664 180.069 32.3237 180.267 32.3256C180.443 32.3273 180.618 32.384 180.793 32.4957C180.991 32.5856 181.067 32.7183 181.021 32.8939C180.932 33.0471 180.764 33.3864 180.518 33.9121C180.294 34.4159 180.081 34.9749 179.878 35.589C179.676 36.181 179.572 36.708 179.569 37.17C179.564 37.742 179.738 38.0737 180.089 38.1651C180.331 38.2115 180.584 38.1259 180.85 37.9085C181.138 37.6913 181.393 37.4407 181.615 37.1569C181.859 36.8732 182.037 36.6659 182.148 36.535C182.615 35.9235 183.049 35.3007 183.449 34.6665C183.873 34.0106 184.295 33.3987 184.718 32.8308C184.851 32.656 185.006 32.5695 185.182 32.5712C185.49 32.5742 185.643 32.7407 185.64 33.0707C185.639 33.1807 185.494 33.4653 185.204 33.9245C184.915 34.3617 184.559 34.8643 184.137 35.4322C183.736 36.0004 183.358 36.5137 183.002 36.9723C182.647 37.4309 182.247 37.878 181.804 38.3137C181.361 38.7495 180.798 38.964 180.116 38.9574C179.478 38.9512 179.039 38.804 178.799 38.5156C178.582 38.2275 178.474 37.9074 178.477 37.5555C178.479 37.2475 178.515 36.9288 178.583 36.5994C178.652 36.2481 178.72 35.9517 178.788 35.7104L178.657 35.6101C178.457 35.8502 178.158 36.1553 177.759 36.5254C177.36 36.8956 176.917 37.2763 176.43 37.6676C175.943 38.0369 175.456 38.3512 174.97 38.6105C174.506 38.87 174.087 38.998 173.713 38.9943ZM188.383 39.4666C187.965 39.4625 187.603 39.327 187.297 39.06C187.013 38.7933 186.873 38.3739 186.878 37.8019C186.882 37.3399 186.973 36.8678 187.153 36.3855C187.333 35.8812 187.501 35.4869 187.657 35.2024C188.015 34.5018 188.394 33.8564 188.794 33.2663C189.195 32.6542 189.496 32.217 189.696 31.955C189.3 31.9731 188.827 31.8696 188.279 31.6442C187.753 31.4191 187.381 31.1295 187.164 30.7754C186.875 31.1906 186.462 31.8686 185.927 32.8095C185.392 33.7283 184.713 34.7008 183.891 35.7269C183.758 35.9016 183.603 35.9881 183.427 35.9864C183.097 35.9832 182.933 35.8386 182.935 35.5526C182.936 35.4426 182.97 35.3439 183.037 35.2566C183.37 34.7978 183.782 34.2077 184.272 33.4865C184.783 32.7434 185.273 31.9781 185.742 31.1906C186.232 30.3813 186.623 29.6591 186.914 29.0239C187.003 28.8267 187.093 28.6186 187.182 28.3994C187.294 28.1805 187.395 27.9725 187.484 27.7753C187.573 27.6222 187.696 27.4914 187.85 27.3829C188.005 27.2524 188.182 27.1881 188.38 27.19C188.556 27.1917 188.731 27.2704 188.906 27.4261C189.081 27.5598 189.168 27.7147 189.166 27.8907C189.165 28.0887 189.086 28.3409 188.93 28.6474C188.795 28.9321 188.65 29.2277 188.494 29.5342C188.337 29.8407 188.258 30.115 188.256 30.3569C188.255 30.5549 188.419 30.6885 188.748 30.7577C189.078 30.8269 189.319 30.8623 189.473 30.8638C190.067 30.8695 190.563 30.7533 190.961 30.5152C191.359 30.277 191.635 30.1587 191.789 30.1602C191.921 30.1615 192.03 30.2175 192.117 30.3284C192.227 30.4174 192.281 30.517 192.28 30.627C192.279 30.781 192.212 30.9123 192.079 31.021C191.769 31.304 191.403 31.7075 190.981 32.2314C190.558 32.7554 190.136 33.3233 189.713 33.9352C189.29 34.5472 188.923 35.1486 188.61 35.7396C188.52 35.9588 188.386 36.2655 188.207 36.6598C188.05 37.0542 187.97 37.4275 187.967 37.7795C187.963 38.3735 188.169 38.6725 188.587 38.6765C188.763 38.6782 188.962 38.6142 189.183 38.4843C189.426 38.3546 189.658 38.2029 189.879 38.029C190.411 37.5502 190.877 37.0817 191.276 36.6235C191.698 36.1436 192.12 35.6086 192.543 35.0187C192.965 34.4288 193.455 33.7185 194.012 32.8879C194.101 32.7347 194.255 32.6592 194.475 32.6613C194.761 32.6641 194.903 32.7975 194.901 33.0615C194.9 33.1935 194.833 33.3798 194.699 33.6206C194.387 34.1676 193.975 34.7686 193.464 35.4237C192.975 36.079 192.464 36.701 191.931 37.2899C191.421 37.857 190.966 38.2926 190.568 38.5967C189.859 39.1839 189.131 39.4738 188.383 39.4666ZM194.499 39.1959C193.773 39.1888 193.268 38.9969 192.985 38.6202C192.724 38.2216 192.596 37.7474 192.6 37.1974C192.604 36.6694 192.697 36.1203 192.877 35.55C193.057 34.9797 193.249 34.4535 193.45 33.9715C193.674 33.4676 193.853 33.0953 193.987 32.8546C194.388 32.1765 194.834 31.5208 195.322 30.8875C195.833 30.2544 196.377 29.6986 196.953 29.2202C197.528 28.7198 198.114 28.3404 198.71 28.0822C199.329 27.8022 199.946 27.6652 200.562 27.6711C201.618 27.6814 202.363 27.9746 202.799 28.5509C203.235 29.1051 203.45 29.7012 203.445 30.3392C203.443 30.5592 203.408 30.7899 203.341 31.0312C203.25 31.3604 203.138 31.6453 203.004 31.886C202.892 32.1269 202.748 32.2465 202.572 32.2448C202.418 32.2433 202.276 32.165 202.145 32.0097C202.014 31.8544 201.971 31.7 202.017 31.5464C202.062 31.3928 202.118 31.2394 202.185 31.086C202.274 30.9329 202.331 30.7794 202.354 30.6256C202.377 30.5159 202.388 30.417 202.389 30.329C202.412 30.2412 202.423 30.1533 202.424 30.0653C202.429 29.4713 202.234 29.0624 201.84 28.8386C201.468 28.593 201.062 28.468 200.622 28.4637C200.116 28.4588 199.586 28.5967 199.034 28.8774C198.504 29.1582 198.04 29.4838 197.641 29.8539C197.153 30.3332 196.664 30.8895 196.176 31.5228C195.687 32.1561 195.264 32.801 194.906 33.4576C194.862 33.5671 194.738 33.83 194.537 34.246C194.358 34.6623 194.178 35.1336 193.998 35.6599C193.84 36.1643 193.76 36.6366 193.756 37.0766C193.754 37.3846 193.818 37.6492 193.948 37.8705C194.1 38.092 194.352 38.2044 194.704 38.2078C195.078 38.2114 195.509 38.0396 195.995 37.6923C196.504 37.3452 197.013 36.9211 197.523 36.4201C198.055 35.8972 198.532 35.3958 198.954 34.9159C199.376 34.4359 199.687 34.0649 199.887 33.8029C200.02 33.6282 200.143 33.4423 200.254 33.2454C200.388 33.0267 200.521 32.83 200.655 32.6553C200.721 32.5679 200.854 32.5252 201.052 32.5271C201.228 32.5288 201.403 32.5855 201.579 32.6972C201.776 32.7871 201.852 32.9199 201.806 33.0954C201.717 33.2486 201.55 33.588 201.303 34.1136C201.079 34.6175 200.866 35.1764 200.663 35.7905C200.461 36.3825 200.358 36.9096 200.354 37.3716C200.349 37.9435 200.523 38.2752 200.874 38.3666C201.116 38.413 201.37 38.3274 201.635 38.11C201.923 37.8928 202.178 37.6423 202.4 37.3584C202.644 37.0747 202.822 36.8675 202.933 36.7365C203.4 36.125 203.834 35.5022 204.235 34.8681C204.658 34.2121 205.081 33.6002 205.503 33.0323C205.636 32.8576 205.791 32.7711 205.967 32.7728C206.275 32.7758 206.428 32.9422 206.425 33.2722C206.424 33.3822 206.279 33.6668 205.989 34.126C205.7 34.5633 205.344 35.0658 204.922 35.6338C204.521 36.2019 204.143 36.7153 203.788 37.1738C203.432 37.6324 203.033 38.0796 202.589 38.5153C202.146 38.951 201.583 39.1656 200.901 39.1589C200.263 39.1528 199.824 39.0055 199.584 38.7172C199.367 38.429 199.259 38.109 199.262 37.757C199.264 37.449 199.3 37.1303 199.368 36.801C199.437 36.4496 199.505 36.1533 199.573 35.9119L199.442 35.8116C199.242 36.0517 198.943 36.3568 198.544 36.727C198.145 37.0971 197.702 37.4778 197.215 37.8691C196.728 38.2384 196.242 38.5527 195.756 38.812C195.292 39.0716 194.873 39.1995 194.499 39.1959Z" fill="#946A57"/>
</svg>
