<svg width="15" height="27" viewBox="0 0 15 27" fill="none" xmlns="http://www.w3.org/2000/svg">
<path d="M2.97235 26.4657L14.6198 14.4974C14.7581 14.3549 14.8558 14.2005 14.9129 14.0343C14.971 13.8681 15 13.69 15 13.5C15 13.31 14.971 13.1319 14.9129 12.9657C14.8558 12.7995 14.7581 12.6451 14.6198 12.5026L2.97235 0.498681C2.64977 0.166227 2.24654 0 1.76267 0C1.2788 0 0.864055 0.1781 0.518433 0.534301C0.17281 0.890501 -6.09643e-07 1.30607 -6.09643e-07 1.781C-6.09643e-07 2.25594 0.17281 2.6715 0.518433 3.0277L10.6797 13.5L0.518433 23.9723C0.195852 24.3047 0.0345611 24.7141 0.0345611 25.2005C0.0345611 25.6878 0.207372 26.1095 0.552994 26.4657C0.898616 26.8219 1.30184 27 1.76267 27C2.2235 27 2.62673 26.8219 2.97235 26.4657Z" fill="#603D2F"/>
</svg>
