<svg width="22" height="22" viewBox="0 0 22 22" fill="none" xmlns="http://www.w3.org/2000/svg">
<path fill-rule="evenodd" clip-rule="evenodd" d="M8.72237 4.17795C5.35764 6.39445 3.4885 8.97395 3.11449 11.9178C2.53225 16.4998 6.52703 18.7424 8.55123 16.7276C10.5754 14.7123 9.36225 12.1548 7.8966 11.4554C6.43096 10.7564 5.53459 10.9998 5.69099 10.0652C5.84738 9.13116 7.93235 6.54066 9.76441 5.33433C9.82933 5.2777 9.87075 5.19781 9.88022 5.11094C9.88968 5.02406 9.86648 4.93676 9.81535 4.86683L9.36225 4.26229C9.16564 4.00012 8.97707 4.0102 8.72237 4.1775V4.17795ZM17.5815 4.17795C14.2168 6.39445 12.3472 8.97441 11.9736 11.9178C11.3914 16.4998 15.3861 18.7424 17.4103 16.7276C19.4345 14.7123 18.2214 12.1548 16.7553 11.4554C15.2896 10.7564 14.3933 10.9998 14.5497 10.0652C14.706 9.13116 16.7915 6.54066 18.6235 5.33433C18.6884 5.27764 18.7297 5.19771 18.7391 5.11084C18.7485 5.02397 18.7252 4.9367 18.674 4.86683L18.2209 4.26229C18.0243 4.00012 17.8357 4.0102 17.5815 4.1775V4.17795Z" fill="#CF7C29"/>
</svg>
